
<svg width="169" height="40" viewBox="0 0 169 40" fill="none" xmlns="http://www.w3.org/2000/svg">
<path d="M12.005 13.6663H19.0283C19.8442 13.6663 21.1994 13.9287 21.9541 13.617C22.3609 13.4491 22.6864 12.8454 22.9716 12.523C23.5007 11.925 24.167 11.3985 24.8266 10.9506C27.8904 8.86985 31.9771 8.46682 35.3616 10.0165C36.7359 10.6458 38.0096 11.5645 39.0228 12.6863C44.9091 19.2033 40.7815 29.8358 32.095 30.8747C29.3124 31.2074 26.4531 30.3194 24.255 28.6204C23.7432 28.2248 23.2534 27.796 22.8323 27.3046C22.5894 27.0212 22.3085 26.5202 21.9541 26.3739C21.1994 26.0622 19.8442 26.3246 19.0283 26.3246H12.005C12.3089 28.3827 13.8277 30.5993 15.0737 32.2046C19.3692 37.7388 26.356 40.702 33.32 39.8579C43.1117 38.6711 51.1509 29.9489 50.9228 19.9546C50.712 10.7219 44.4894 2.5806 35.3616 0.48946C27.8445 -1.23273 19.7854 1.68161 15.0798 7.78628C13.8422 9.39176 12.3083 11.6126 12.005 13.6663ZM84.1166 8.63764C80.4351 9.10323 77.242 9.80769 74.6669 12.768C71.0157 16.9661 71.0864 24.4618 75.2967 28.2707C78.1566 30.8579 82.1624 31.6668 85.9133 31.212C88.7267 30.8708 91.4209 29.509 93.2258 27.3046C97.0159 22.6732 96.8779 14.4994 91.7933 10.8429C90.6328 10.0082 89.34 9.41756 87.955 9.06271C86.7871 8.76349 85.3196 8.48558 84.1166 8.63764ZM57.33 9.09295C57.3258 10.5959 57.1074 12.3674 56.7583 13.8296C58.1184 14.2316 59.9931 13.9113 61.4133 13.9113C61.2293 18.1978 60.3592 22.5527 59.849 26.8146C59.688 28.1588 59.3828 29.5439 59.3716 30.8979H64.8433L65.9993 21.7513L66.9667 13.9113H71.6217L72.1933 9.09295H57.33ZM96.9383 13.9113H101.512C101.5 15.2653 101.196 16.6505 101.035 17.9946C100.524 22.257 99.6546 26.6108 99.47 30.8979H103.39L104.881 30.814L105.118 29.6729L105.517 26.4879L106.588 17.9129L107.065 13.9112H110.413L111.66 13.8272L111.896 12.6045L112.292 9.09288H101.43H98.6533L97.5704 9.17686L97.3238 10.3996L96.9383 13.9113ZM114.742 9.09292C114.73 10.4726 114.428 11.888 114.265 13.2579C113.984 15.5991 113.717 17.9431 113.412 20.2812C113.12 22.5258 112.765 24.9174 113.716 27.0596C115.773 31.6947 122.827 32.2029 126.992 30.5546C128.325 30.0268 129.5 29.2835 130.367 28.1212C131.709 26.3226 131.879 23.7376 132.16 21.5879C132.699 17.4436 133.359 13.2585 133.688 9.09292H128.135C127.873 12.4142 127.363 15.752 126.933 19.0562C126.719 20.6993 126.741 22.597 126.021 24.1196C124.981 26.3163 121.123 26.8871 119.495 25.0167C118.364 23.7162 118.74 21.5887 118.954 20.0363C119.455 16.3968 119.834 12.7376 120.295 9.09292H114.742ZM139.813 9.09292L138.101 14.5646L134.421 26.2429L132.953 30.8979H137.118C137.489 30.8979 138.305 31.0511 138.61 30.8139C138.859 30.6213 138.926 30.0426 139.008 29.7545C139.251 28.9093 139.497 28.0626 139.759 27.2229C140.852 23.723 141.892 20.2081 142.59 16.6062H142.672C142.675 21.4704 144.75 26.1226 145.367 30.8979C146.086 30.8979 147.663 31.197 148.276 30.8139C148.601 30.6109 148.775 30.0826 148.94 29.7545C149.362 28.9109 149.773 28.0611 150.206 27.2228C151.272 25.1571 152.35 23.0958 153.39 21.0162C154.012 19.7728 154.762 18.4574 155.085 17.0962H155.167L155.248 30.8978H160.802C160.351 28.4697 160.661 25.7709 160.553 23.3028C160.347 18.5831 160.067 13.8173 160.067 9.09284H155.902L154.321 9.17682L153.758 10.1545L152.615 12.4412L149.185 19.1379L147.898 21.9962C147.862 17.624 145.945 13.3885 145.367 9.09288L139.813 9.09292ZM165.293 9.13085C161.814 9.75821 162.877 15.0371 166.355 14.4562C169.785 13.8835 168.746 8.50813 165.293 9.13085ZM165.375 9.52578C166.158 9.41006 167.021 9.60282 167.537 10.2395C168.537 11.4741 168.075 13.7456 166.355 14.0477C165.417 14.2125 164.434 13.9229 163.903 13.0945C163.063 11.7864 163.775 9.76221 165.375 9.52578ZM164.967 10.3179V13.1762H165.538V12.1145C166.047 12.6686 166.277 13.1733 167.09 13.1762L166.192 11.9512C166.833 11.7279 167.055 10.8797 166.432 10.4601C166.048 10.2015 165.408 10.3179 164.967 10.3179ZM165.538 11.5429V10.8079C166.372 10.8281 166.372 11.5226 165.538 11.5429ZM83.2183 13.9346C84.2212 13.8114 85.3596 13.8719 86.3217 14.1854C90.0841 15.4117 91.2519 20.4094 89.1188 23.5479C88.0783 25.0795 86.3984 25.8419 84.6067 26.0563C83.7181 26.1624 82.7733 26.0713 81.9117 25.844C78.1003 24.8384 76.6646 20.2448 78.5176 16.9329C79.4829 15.2069 81.2885 14.1716 83.2183 13.9346ZM0 24.5279H30.87L31.9317 15.4629H9.14665H3.34831C2.86256 15.4629 1.5894 15.2349 1.20394 15.5469C0.826538 15.8521 0.874868 17.4308 0.820748 17.9129C0.572889 20.1206 0.278532 22.324 0 24.5279Z" fill="#DB1F89"/>
</svg>
