<?xml version="1.0" encoding="utf-8"?>
<!-- Generator: Adobe Illustrator 26.5.0, SVG Export Plug-In . SVG Version: 6.00 Build 0)  -->
<svg version="1.0" id="katman_1" xmlns="http://www.w3.org/2000/svg" xmlns:xlink="http://www.w3.org/1999/xlink" x="0px" y="0px"
	 viewBox="0 0 1190.55 841.89" style="enable-background:new 0 0 1190.55 841.89;" xml:space="preserve">
<style type="text/css">
	.st0{clip-path:url(#SVGID_00000145022438912080398690000017100944683056381631_);}
	.st1{fill:#2772B9;}
</style>
<g>
	<defs>
		<rect id="SVGID_1_" x="112" y="316.97" width="966" height="207.05"/>
	</defs>
	<clipPath id="SVGID_00000120553563693376164910000014222400203253859728_">
		<use xlink:href="#SVGID_1_"  style="overflow:visible;"/>
	</clipPath>
	<g style="clip-path:url(#SVGID_00000120553563693376164910000014222400203253859728_);">
		<path class="st1" d="M308.79,451.19v-50.44c0,0,0-1.26-1.42-1.26c-1.26,0-1.26,1.26-1.26,1.26v50.44c0,0,0,1.13,1.39,1.13
			C308.92,452.32,308.79,451.19,308.79,451.19z"/>
		<path class="st1" d="M112,524.03h966V316.97H112V524.03z M197.91,452.32c1.26,0,1.26-1,1.26-1v-54.8h3.52v54.67
			c0,0,0.29,4.23-4.52,4.23c-4.81,0-4.78-4.23-4.78-4.23v-54.67h3.52v54.54C196.9,451.06,196.61,452.32,197.91,452.32z
			 M319.92,464.13H185.51v-5.65h134.41V464.13z M215.53,455.42v-58.89h2.81l3.52,31.46v-31.46h2.97v58.89h-2.97l-3.52-35.4v35.4
			H215.53z M245.67,422.47v3.23h-3.81v26.62h5.07v3.1h-9v-58.89h7.74v2.97h-3.81v22.98H245.67z M263.06,452.25
			c0.9,0.06,0.9-1.06,0.9-1.06V437.6c0-5.71-5.49-18.17-5.49-25.56v-11.26c0,0,0-4.1,4.65-4.23c4.65-0.13,4.52,4.23,4.52,4.23v13.23
			H264v-13.23c0,0,0-1.26-1-1.26c-1,0-0.84,1.26-0.84,1.26v13.23c0,4.36,5.49,17.52,5.49,24.46c0,2.87,0,12.75,0,12.75
			s0,4.23-4.65,4.23c-4.65,0-4.52-4.23-4.52-4.23v-14.78h3.68v14.78C262.16,451.19,262.16,452.19,263.06,452.25z M285.1,399.49
			c-1.26,0-1.26,1.26-1.26,1.26v50.44c0,0,0.23,1.13,1.26,1.13c1.13,0,1.13-1.13,1.13-1.13v-14.78h3.52v14.78c0,0,0,4.23-4.65,4.23
			c-4.65,0-4.52-4.23-4.52-4.23v-50.44c0,0,0-4.23,4.52-4.23c4.52,0,4.65,4.23,4.65,4.23v13.23h-3.52v-13.23
			C286.23,400.75,286.23,399.49,285.1,399.49z M302.59,451.19v-50.44c0,0,0-4.23,4.94-4.23c4.94,0,4.65,4.23,4.65,4.23v50.44
			c0,0,0,4.23-4.94,4.23C302.59,455.42,302.59,451.19,302.59,451.19z M185.51,387.45h134.41v5.65H185.51V387.45z M196.36,383.84
			l56.35-17.2l55.51,17.2h-16.33l-39.18-11.97l-40.02,11.97H196.36z M185.51,377.77l67.19-20.72l67.22,20.72v6.07l-67.64-20.43
			l-66.77,20.43V377.77z M177.9,468.07h149.35v5.62H177.9V468.07z M334.57,483.3H170.86v-5.65h163.71V483.3z M1072.16,518.18H393.4
			V322.82h678.76V518.18z"/>
		<path class="st1" d="M918.2,442.44c-4.29,4.26-9.97,6.62-16.04,6.62c-12.52,0-22.72-10.2-22.72-22.72
			c0-12.52,10.16-22.72,22.72-22.72c6,0,11.65,2.32,15.94,6.55l0.58,0.58l10.33-21.98l-0.39-0.29c-7.81-5.52-17.01-8.46-26.59-8.46
			c-25.43,0-46.08,20.69-46.08,46.08c0,25.43,20.69,46.08,46.08,46.08c9.55,0,18.72-2.9,26.52-8.42l0.39-0.29l-10.16-21.62
			L918.2,442.44z"/>
		<path class="st1" d="M983.64,449.13c-12.49,0-22.65-10.17-22.65-22.65s10.16-22.65,22.65-22.65c12.49,0,22.65,10.17,22.65,22.65
			S996.13,449.13,983.64,449.13z M983.51,380.23c-25.36,0-46.02,20.65-46.02,46.02c0,25.37,20.65,46.02,46.02,46.02
			c25.36,0,46.02-20.65,46.02-46.02C1029.52,400.88,1008.9,380.23,983.51,380.23z"/>
		<path class="st1" d="M480.12,382.97v47.57c0,3.87,0.39,9.88,4.84,13.94c1.94,1.74,5.42,4.07,11.62,4.07
			c5.23,0,9.3-1.74,11.81-4.07c4.06-3.87,4.64-9.68,4.64-13.94v-47.57h27.85v50.28c0,9.87-0.97,19.14-9.68,27.66
			c-9.87,9.68-24.36,11.23-34.63,11.23c-10.65,0-24.95-1.55-34.82-11.23c-7.94-7.75-9.49-16.43-9.49-25.91v-52.02H480.12z"/>
		<path class="st1" d="M562.51,382.97h27.85v10.26c8.52-10.84,18.56-12.59,26.69-12.59c7.55,0,17.43,1.36,24.75,8.71
			c8.13,8.13,8.71,18.36,8.71,25.33v54.54h-27.85v-44.28c0-5.62-0.19-12.75-4.65-17.2c-2.13-2.13-5.62-3.87-10.62-3.87
			c-5.81,0-9.49,2.32-11.62,4.65c-4.64,4.65-5.42,10.84-5.42,16.43v44.31h-27.85V382.97z"/>
		<path class="st1" d="M734.83,414.3c-0.2-0.77-1.55-6.2-5.62-10.07c-3.1-2.9-7.55-4.84-13.17-4.84c-7.17,0-11.42,2.9-14.13,5.62
			c-2.13,2.32-4.07,5.42-4.84,9.29H734.83z M760.55,430.92h-64.41c0,4.65,1.74,10.84,5.23,14.72c4.26,4.65,10.07,5.42,14.29,5.42
			c4.07,0,8.33-0.77,11.23-2.52c0.38-0.19,3.68-2.32,6-7.16l26.3,2.71c-3.87,12.17-11.62,18.56-16.62,21.65
			c-8.33,5.03-17.62,6.39-27.27,6.39c-12.94,0-24.37-2.32-34.43-12.39c-7.55-7.55-12.97-18.94-12.97-33.27
			c0-12.36,4.45-25.14,13.17-34.05c10.46-10.46,23.4-12.39,33.08-12.39c9.68,0,23.59,1.74,34.24,12.97
			c10.26,10.84,12.2,24.36,12.2,35.01v2.9H760.55z"/>
		<path class="st1" d="M830.77,405.01c-4.26-2.52-9.88-4.84-15.27-4.84c-2.9,0-6.2,0.77-7.94,2.52c-0.97,0.97-1.74,2.52-1.74,3.87
			c0,1.94,1.35,3.1,2.71,3.87c1.94,1.16,4.84,1.74,8.33,2.9l7.36,2.32c4.84,1.55,9.88,3.49,14.29,7.55
			c5.04,4.65,6.78,9.88,6.78,16.46c0,11.42-5.03,18.75-8.91,22.62c-8.52,8.52-18.97,9.84-28.04,9.84c-11.62,0-24.17-2.52-35.4-12.36
			l11.81-18.75c2.71,2.32,6.58,5.03,9.49,6.39c3.87,1.94,7.94,2.71,11.62,2.71c1.75,0,6.2,0,8.71-1.94
			c1.74-1.36,2.91-3.49,2.91-5.62c0-1.55-0.58-3.49-3.1-5.03c-1.94-1.16-4.46-1.94-8.52-3.1l-6.97-2.13
			c-5.03-1.55-10.26-4.26-13.94-7.94c-4.07-4.26-6.2-9.1-6.2-15.68c0-8.33,3.29-15.26,8.33-19.91c7.74-7.16,18.17-8.71,26.11-8.71
			c12.74,0,21.65,3.29,28.62,7.36L830.77,405.01z"/>
	</g>
</g>
</svg>
