<svg xmlns="http://www.w3.org/2000/svg" width="90" height="38" viewBox="0 0 90 38">
    <g fill="none">
        <g fill="#F58220">
            <path d="M.271 1.41C.271.798.648.39 1.276.39h5.18c.644 0 1.067.424 1.067 1.004 0 .566-.424.99-1.067.99H2.673c-.063 0-.094.03-.094.093v2.12c0 .062.031.093.094.093h3.03c.643 0 1.051.408 1.051.989 0 .58-.408.989-1.052.989h-3.03c-.062 0-.093.031-.093.094v2.213c0 .063.031.094.094.094h3.783c.644 0 1.067.424 1.067.99 0 .58-.424 1.004-1.067 1.004h-5.18c-.628 0-1.005-.408-1.005-1.02V1.41zM10.083 1.677c0-.848.502-1.381 1.287-1.381.66 0 1.099.392 1.523 1.13l3.265 5.824h.063V1.41c0-.706.424-1.114 1.051-1.114.628 0 1.052.408 1.052 1.114v8.367c0 .848-.502 1.381-1.287 1.381-.66 0-1.1-.392-1.523-1.13L12.249 4.22h-.063v5.824c0 .706-.424 1.114-1.052 1.114-.628 0-1.051-.407-1.051-1.114V1.677zM21.308 1.41c0-.612.377-1.02 1.004-1.02h5.18c.644 0 1.068.424 1.068 1.004 0 .566-.424.99-1.068.99H23.71c-.063 0-.094.03-.094.093v2.12c0 .062.032.093.094.093h3.03c.644 0 1.052.408 1.052.989 0 .58-.408.989-1.052.989h-3.03c-.063 0-.094.031-.094.094v2.213c0 .063.032.094.094.094h3.783c.644 0 1.068.424 1.068.99 0 .58-.424 1.004-1.068 1.004h-5.18c-.628 0-1.005-.408-1.005-1.02V1.41zM36.88 10.436L35.092 7h-1.57c-.062 0-.094.03-.094.093v2.842c0 .738-.47 1.224-1.146 1.224-.675 0-1.161-.486-1.161-1.224V1.41c0-.612.377-1.02 1.004-1.02h3.39c2.199 0 3.643 1.365 3.643 3.312 0 1.303-.66 2.339-1.758 2.888l1.554 2.826c.11.204.157.424.157.644 0 .596-.408 1.098-1.1 1.098-.47 0-.862-.22-1.13-.722zm-.03-6.718c0-.817-.566-1.335-1.445-1.335H33.52c-.063 0-.094.032-.094.094v2.465c0 .063.032.094.094.094h1.884c.88 0 1.444-.518 1.444-1.318zM41.496 5.727c0-1.57.063-2.167.298-2.92.55-1.727 2.025-2.59 3.925-2.59 1.727 0 2.92.706 3.485 1.664.126.22.204.44.204.69 0 .613-.47 1.037-1.051 1.037-.393 0-.707-.125-1.02-.565-.409-.566-.927-.785-1.618-.785-.91 0-1.475.455-1.71 1.193-.126.392-.173.895-.173 2.276 0 1.381.047 1.9.172 2.292.236.722.817 1.177 1.743 1.177.816 0 1.491-.424 1.71-1.099.095-.282.127-.644.127-1.052 0-.062-.032-.094-.094-.094h-.723c-.596 0-.973-.36-.973-.91s.377-.91.973-.91h2.198c.58 0 .91.329.91.91v.11c0 .942-.078 1.82-.267 2.417-.55 1.711-1.993 2.669-3.893 2.669-1.9 0-3.375-.863-3.925-2.59-.235-.754-.298-1.35-.298-2.92zM52.407 1.457c0-.69.55-1.24 1.24-1.24s1.24.55 1.24 1.24-.55 1.24-1.24 1.24-1.24-.55-1.24-1.24zm.141 8.54V4.534c0-.722.456-1.162 1.1-1.162.627 0 1.098.44 1.098 1.162v5.463c0 .722-.47 1.161-1.099 1.161-.643 0-1.099-.44-1.099-1.161z" transform="translate(34.415 26.264)"/>
        </g>
        <path fill="#F58220" d="M68.501 20.543c.312.702-.06 1.276-.828 1.276h-2.347c-.768 0-1.654-.573-1.968-1.273l-3.493-7.769c-.316-.7-.836-.702-1.157-.005l-3.582 7.779c-.321.697-1.213 1.267-1.98 1.267h-2.587c-.768 0-1.13-.569-.805-1.264l9.011-19.29c.325-.695.846-.69 1.159.011L68.5 20.543z"/>
        <path fill="#FFF" d="M10.513 20.542c-.312.701-.834.706-1.159.01L.346 1.265C.021.569.383 0 1.151 0h2.607c.768 0 1.657.572 1.974 1.27l3.535 7.774c.318.699.838.698 1.155 0l3.524-7.772C14.262.572 15.15 0 15.918 0h2.347c.768 0 1.14.574.828 1.276l-8.58 19.266zM24.207 21.817a1.4 1.4 0 01-1.396-1.396V1.396A1.4 1.4 0 0124.207 0h2.134a1.4 1.4 0 011.396 1.396V20.42a1.4 1.4 0 01-1.396 1.396h-2.134zM44.68 4.394a1.4 1.4 0 00-1.396 1.395v14.632a1.4 1.4 0 01-1.396 1.396h-2.135a1.4 1.4 0 01-1.396-1.396V5.79a1.4 1.4 0 00-1.396-1.395h-3.8a1.4 1.4 0 01-1.396-1.396V1.396A1.4 1.4 0 0133.161 0H48.48a1.4 1.4 0 011.396 1.396v1.602a1.4 1.4 0 01-1.396 1.396h-3.8zM74.028 21.817a1.4 1.4 0 01-1.395-1.396V1.396A1.4 1.4 0 0174.028 0h2.136a1.4 1.4 0 011.395 1.396v14.633a1.4 1.4 0 001.396 1.396h8.654a1.4 1.4 0 011.396 1.396v1.6a1.4 1.4 0 01-1.396 1.396h-13.58z"/>
    </g>
</svg>
