<?xml version="1.0" encoding="UTF-8"?>
<svg id="Layer_2" data-name="Layer 2" xmlns="http://www.w3.org/2000/svg" viewBox="0 0 244.78 75.45">
  <defs>
    <style>
      .cls-1 {
        fill: #fff;
      }

      .cls-1, .cls-2 {
        stroke-width: 0px;
      }

      .cls-2 {
        fill: #ffaf33;
      }
    </style>
  </defs>
  <g id="Layer_1-2" data-name="Layer 1">
    <g>
      <path class="cls-1" d="M130.2,16.44c.28,0,.51-.1.71-.3.2-.2.3-.44.3-.73s-.1-.53-.3-.72c-.2-.19-.44-.29-.71-.29s-.51.1-.7.29c-.19.19-.29.43-.29.72s.1.53.29.73c.19.2.43.3.7.3Z"/>
      <path class="cls-1" d="M135.24,15.8c.77.42,1.64.64,2.62.64.84,0,1.59-.17,2.27-.5.68-.33,1.21-.82,1.59-1.45l-.99-.68c-.32.49-.74.85-1.24,1.09-.5.24-1.04.36-1.63.36-.71,0-1.35-.16-1.92-.48-.57-.32-1.01-.77-1.33-1.35-.32-.58-.48-1.25-.48-2.02s.16-1.42.48-2.01c.32-.59.76-1.04,1.33-1.36.57-.32,1.21-.48,1.92-.48.59,0,1.13.12,1.63.36.5.24.91.61,1.24,1.1l.99-.68c-.39-.64-.92-1.12-1.58-1.45-.67-.33-1.43-.5-2.28-.5-.98,0-1.85.21-2.62.64-.77.43-1.37,1.02-1.81,1.78-.44.76-.66,1.62-.66,2.59s.22,1.83.66,2.6c.44.77,1.04,1.37,1.81,1.79Z"/>
      <path class="cls-1" d="M145.62,15.81c.76.43,1.63.65,2.56.65s1.81-.22,2.56-.65c.76-.43,1.37-1.05,1.81-1.81.43-.76.65-1.63.65-2.6s-.22-1.81-.65-2.56c-.43-.76-1.05-1.37-1.81-1.81-.76-.4-1.63-.61-2.56-.61s-1.81.22-2.56.61c-.76.43-1.37,1.05-1.81,1.81-.43.76-.65,1.63-.65,2.56s.22,1.84.65,2.6c.43.76,1.05,1.37,1.81,1.81ZM145.01,9.41c.29-.58.76-1.05,1.3-1.37.54-.33,1.19-.47,1.88-.47s1.34.14,1.88.47c.58.33,1.01.79,1.3,1.37.33.58.47,1.26.47,1.99,0,.76-.14,1.45-.47,2.02-.29.58-.72,1.05-1.3,1.37-.54.29-1.19.47-1.88.47s-1.34-.18-1.88-.47c-.54-.33-1.01-.79-1.3-1.37-.33-.58-.51-1.26-.51-2.02s.18-1.41.51-1.99Z"/>
      <path class="cls-1" d="M157.25,11.17c0-1.11.3-1.99.89-2.62.59-.63,1.4-.95,2.41-.95.91,0,1.62.27,2.11.81.49.54.74,1.32.74,2.34v5.59h1.33v-5.18c0-1.11.29-1.99.88-2.62.59-.63,1.39-.95,2.42-.95.9,0,1.6.27,2.09.81.49.54.74,1.32.74,2.34v5.59h1.33v-5.72c0-1.39-.35-2.44-1.06-3.15-.71-.71-1.68-1.07-2.92-1.07-.88,0-1.65.18-2.33.55-.68.37-1.2.88-1.57,1.53-.3-.69-.75-1.21-1.36-1.56-.61-.35-1.32-.52-2.15-.52s-1.53.16-2.16.49c-.63.32-1.11.79-1.46,1.39v-1.8h-1.28v9.86h1.33v-5.18Z"/>
      <path class="cls-1" d="M9.97,40.44h16.65l3.32,7.69h6.47L21.39,14.9h-6.07L.32,48.14h6.39l3.25-7.69ZM18.32,21.08l6.25,14.52h-12.5l6.25-14.52Z"/>
      <path class="cls-1" d="M51.41,27.53c1.3,0,2.49.29,3.59.88,1.09.59,2,1.47,2.73,2.64l4.56-2.66c-.95-1.9-2.37-3.36-4.25-4.37-1.89-1.01-4.08-1.52-6.58-1.52-2.66,0-5.03.55-7.1,1.66-2.07,1.11-3.7,2.65-4.87,4.61-1.17,1.96-1.76,4.2-1.76,6.7s.59,4.74,1.76,6.72c1.17,1.98,2.8,3.52,4.89,4.63,2.09,1.11,4.45,1.66,7.08,1.66,2.47,0,4.65-.51,6.53-1.54,1.88-1.03,3.32-2.49,4.3-4.4l-4.56-2.66c-.73,1.17-1.64,2.05-2.73,2.64-1.09.59-2.29.88-3.59.88-2.25,0-4.09-.72-5.54-2.16-1.44-1.44-2.16-3.36-2.16-5.77s.73-4.33,2.19-5.77c1.46-1.44,3.29-2.16,5.51-2.16Z"/>
      <path class="cls-1" d="M66.36,25.63l2.35,4.34c.94-.79,2.1-1.41,3.5-1.88,1.37-.43,2.75-.65,4.19-.65,2.1,0,3.65.47,4.73,1.41,1.05.98,1.59,2.31,1.59,4.08v.4h-6.58c-3.65,0-6.29.69-7.98,2.06-1.7,1.37-2.56,3.22-2.56,5.49,0,1.45.4,2.75,1.19,3.9.76,1.19,1.88,2.06,3.29,2.71,1.41.65,3.07.98,4.99.98s3.54-.29,4.88-.87c1.34-.58,2.38-1.45,3.11-2.53v3.07h5.6v-14.85c0-3.61-.98-6.32-2.96-8.13-1.99-1.77-4.84-2.67-8.56-2.67-2.1,0-4.08.29-5.96.79-1.88.54-3.47,1.34-4.8,2.35ZM82.73,40.23c-.47,1.26-1.3,2.24-2.46,2.89-1.16.69-2.49,1.05-3.97,1.05s-2.71-.33-3.54-.98c-.87-.61-1.3-1.48-1.3-2.56,0-2.24,1.7-3.36,5.13-3.36h6.14v2.96Z"/>
      <path class="cls-1" d="M100.6,46.87c1.95,1.08,4.15,1.59,6.57,1.59,1.77,0,3.36-.29,4.8-.9,1.41-.58,2.64-1.48,3.61-2.71v3.29h5.71V12.88h-5.92v13.04c-1.01-1.16-2.2-1.99-3.58-2.56-1.41-.58-2.93-.87-4.62-.87-2.42,0-4.62.54-6.57,1.63-1.95,1.08-3.47,2.6-4.59,4.55-1.08,1.95-1.66,4.23-1.66,6.79s.58,4.84,1.66,6.83c1.12,1.99,2.64,3.5,4.59,4.59ZM101.36,31.27c.65-1.19,1.55-2.13,2.71-2.78,1.12-.65,2.42-.98,3.83-.98s2.71.33,3.87.98c1.12.65,2.02,1.59,2.71,2.78.65,1.23.98,2.6.98,4.19s-.32,2.96-.98,4.19c-.69,1.19-1.59,2.13-2.71,2.78-1.16.65-2.42.98-3.87.98s-2.71-.33-3.83-.98c-1.16-.65-2.06-1.59-2.71-2.78-.69-1.23-1.01-2.6-1.01-4.19s.33-2.96,1.01-4.19Z"/>
      <path class="cls-1" d="M133.7,46.8c2.13,1.12,4.59,1.66,7.37,1.66,2.17,0,4.15-.33,5.89-1.05,1.73-.69,3.18-1.7,4.3-3.07l-3.18-3.65c-1.81,1.84-4.08,2.75-6.86,2.75-2.2,0-4.05-.54-5.49-1.63-1.48-1.12-2.38-2.6-2.75-4.44h19.9c.07-.76.11-1.37.11-1.77,0-2.6-.54-4.88-1.66-6.86-1.08-1.99-2.6-3.5-4.55-4.62-1.95-1.08-4.15-1.63-6.61-1.63s-4.77.54-6.76,1.66c-1.99,1.12-3.54,2.67-4.7,4.62-1.12,1.99-1.66,4.23-1.66,6.68s.58,4.73,1.73,6.72,2.78,3.54,4.91,4.62ZM135.32,28.92c1.34-1.12,2.93-1.66,4.84-1.66s3.54.54,4.84,1.7c1.3,1.12,2.06,2.64,2.31,4.48h-14.38c.29-1.88,1.08-3.4,2.38-4.52Z"/>
      <path class="cls-1" d="M164.33,26.01v-3.23h-5.65v25.37h5.94v-12.87c0-2.47.59-4.35,1.78-5.65,1.19-1.3,2.79-1.95,4.82-1.95,1.84,0,3.24.56,4.23,1.69.98,1.12,1.47,2.8,1.47,5.01v13.78h5.94v-12.87c0-2.44.6-4.31,1.81-5.63,1.2-1.31,2.8-1.97,4.8-1.97,1.84,0,3.25.56,4.23,1.69.98,1.12,1.47,2.8,1.47,5.01v13.78h5.94v-14.54c0-3.71-.93-6.49-2.8-8.34-1.87-1.85-4.4-2.78-7.6-2.78-1.99,0-3.82.37-5.46,1.12-1.65.75-2.99,1.78-4.04,3.11-.85-1.39-2.02-2.45-3.49-3.16-1.47-.71-3.16-1.07-5.06-1.07-1.74,0-3.33.3-4.75.9-1.43.6-2.61,1.47-3.56,2.61Z"/>
      <rect class="cls-1" y="52.76" width="201.11" height="4.95"/>
      <path class="cls-1" d="M218.27,41.53l-7.98-18.75h-6.18l11.05,25.47-.43.98c-.54,1.26-1.19,2.2-1.88,2.71-.61.51-1.41.79-2.35.83h-5.06v4.95h5.38v-.04c.51-.04,1.01-.07,1.48-.18.47-.07.9-.18,1.34-.33.87-.25,1.66-.65,2.42-1.16,1.59-1.12,2.93-3.07,4.05-5.82l11.89-27.42h-5.71l-8.02,18.75Z"/>
      <path class="cls-1" d="M241.93,17.86c.18-.32.29-.69.29-1.12,0-.61-.22-1.12-.69-1.52-.47-.36-1.08-.58-1.88-.58h-2.56v5.92h1.55v-1.73h1.05l1.12,1.73h1.59l-1.3-1.99c.36-.18.65-.43.83-.72ZM240.38,17.43c-.22.14-.47.25-.83.25h-.9v-1.84h.9c.36,0,.61.07.83.22.18.18.29.4.29.69,0,.33-.11.54-.29.69Z"/>
      <path class="cls-1" d="M244.06,14.87c-.47-.83-1.08-1.45-1.91-1.91-.83-.47-1.73-.72-2.75-.72s-1.91.25-2.71.72c-.83.47-1.48,1.12-1.95,1.95-.47.83-.72,1.73-.72,2.71s.25,1.88.72,2.71c.47.83,1.12,1.48,1.91,1.95.83.47,1.73.72,2.75.72s1.88-.25,2.71-.72c.83-.47,1.48-1.12,1.95-1.95.47-.83.72-1.73.72-2.75s-.25-1.88-.72-2.71ZM243.16,19.82c-.36.65-.9,1.19-1.55,1.59-.69.4-1.41.58-2.2.58s-1.55-.18-2.2-.58c-.65-.36-1.19-.9-1.55-1.59-.36-.65-.58-1.41-.58-2.2s.22-1.55.58-2.24c.36-.65.9-1.19,1.55-1.55.65-.4,1.41-.58,2.2-.58s1.59.18,2.24.54c.65.4,1.16.9,1.55,1.59.36.65.54,1.37.54,2.2s-.18,1.55-.58,2.24Z"/>
      <path class="cls-1" d="M6.71,63.28c-.62-.35-1.43-.53-2.41-.53H.09v12.48h1.51v-4.56h2.73c.97,0,1.77-.18,2.39-.53.62-.35,1.08-.83,1.38-1.44.3-.6.45-1.27.45-2.01s-.15-1.4-.45-2c-.3-.6-.76-1.07-1.39-1.42ZM6.78,68.04c-.19.4-.48.71-.89.94-.41.23-.94.35-1.61.35H1.6v-5.24h2.66c.68,0,1.22.11,1.63.34.41.23.71.54.89.93.18.39.28.84.28,1.34s-.09.95-.28,1.34Z"/>
      <path class="cls-1" d="M13.23,62.75l-4.58,12.48h1.58l1.25-3.54h5.05l1.25,3.54h1.58l-4.58-12.48h-1.56ZM11.96,70.36l2-5.63h.1l2,5.63h-4.1Z"/>
      <path class="cls-1" d="M27.95,69.87c.62-.32,1.08-.77,1.38-1.34.3-.57.45-1.22.45-1.96s-.15-1.39-.45-1.97c-.3-.58-.76-1.03-1.39-1.36-.63-.33-1.43-.5-2.4-.5h-4.22v12.48h1.51v-4.87h2.73c.11,0,.2-.02.31-.03l2.64,4.9h1.76l-2.84-5.18c.17-.06.37-.1.52-.18ZM25.51,68.99h-2.68v-4.9h2.66c.67,0,1.22.1,1.63.31.41.21.71.5.9.87.19.37.28.81.28,1.31s-.09.93-.28,1.29c-.19.36-.48.64-.89.83-.41.2-.95.29-1.61.29Z"/>
      <polygon class="cls-1" points="31.61 64.09 35.53 64.09 35.53 75.23 37.04 75.23 37.04 64.09 40.97 64.09 40.97 62.75 31.61 62.75 31.61 64.09"/>
      <path class="cls-1" d="M56,63.36c-.83-.52-1.78-.78-2.84-.78s-2.01.26-2.84.78c-.83.52-1.48,1.26-1.96,2.22-.48.96-.71,2.1-.71,3.41s.24,2.45.71,3.41c.48.96,1.13,1.7,1.96,2.22.83.52,1.78.78,2.84.78s2.01-.26,2.84-.78c.83-.52,1.48-1.26,1.96-2.22.48-.96.71-2.1.71-3.41s-.24-2.45-.71-3.41c-.48-.96-1.13-1.7-1.96-2.22ZM56.67,71.73c-.36.75-.85,1.31-1.46,1.69-.61.38-1.29.57-2.05.57s-1.44-.19-2.05-.57c-.61-.38-1.1-.94-1.46-1.69-.36-.74-.54-1.65-.54-2.74s.18-1.99.54-2.74c.36-.75.84-1.31,1.46-1.69.61-.38,1.3-.57,2.05-.57s1.44.19,2.05.57c.61.38,1.1.94,1.46,1.69.36.74.54,1.66.54,2.74s-.18,1.99-.54,2.74Z"/>
      <polygon class="cls-1" points="61.21 75.23 62.72 75.23 62.72 69.65 68.13 69.65 68.13 68.31 62.72 68.31 62.72 64.09 68.69 64.09 68.69 62.75 61.21 62.75 61.21 75.23"/>
      <path class="cls-2" d="M84.28,63.33c-.88-.5-1.88-.75-2.98-.75s-2.1.25-2.99.75c-.88.5-1.58,1.23-2.09,2.19-.51.96-.77,2.11-.77,3.47s.26,2.51.77,3.47c.51.96,1.21,1.68,2.09,2.19.88.5,1.88.76,2.99.76s2.09-.25,2.98-.75,1.58-1.23,2.1-2.19c.51-.95.77-2.11.77-3.47s-.26-2.52-.77-3.47c-.51-.96-1.21-1.68-2.1-2.19ZM84.08,71.22c-.26.61-.63,1.06-1.11,1.38-.48.31-1.03.47-1.67.47s-1.19-.16-1.67-.47c-.48-.31-.84-.77-1.11-1.38-.26-.6-.39-1.35-.39-2.23s.13-1.62.39-2.23c.26-.6.63-1.06,1.11-1.38.48-.31,1.03-.47,1.67-.47s1.19.16,1.67.47c.48.31.84.77,1.11,1.38.26.61.39,1.35.39,2.23s-.13,1.63-.39,2.23Z"/>
      <polygon class="cls-2" points="99.55 62.75 96.39 62.75 91.9 68.25 91.73 68.25 91.73 62.75 89.09 62.75 89.09 75.23 91.73 75.23 91.73 71.69 93.03 70.1 96.45 75.23 99.61 75.23 94.92 68.34 99.55 62.75"/>
      <path class="cls-2" d="M109.18,62.75h-3.3l-5.21,8.21v2.08h5.99v2.19h2.52v-2.19h1.55v-2.12h-1.55v-8.17ZM106.71,70.92h-3.38v-.1l3.29-5.2h.1v5.3Z"/>
      <path class="cls-2" d="M120.28,70.63c0,.48-.11.9-.31,1.27-.21.37-.5.66-.88.87-.38.21-.83.32-1.34.32s-.95-.1-1.34-.32c-.38-.21-.68-.5-.89-.87-.21-.37-.31-.79-.31-1.27v-7.88h-2.64v8.11c0,.91.22,1.71.65,2.39.43.68,1.03,1.22,1.81,1.59.78.38,1.68.57,2.72.57s1.94-.19,2.71-.57c.77-.38,1.38-.91,1.81-1.59.43-.68.65-1.48.65-2.39v-8.11h-2.64v7.88Z"/>
      <polygon class="cls-2" points="135.54 62.75 132.38 62.75 127.89 68.25 127.72 68.25 127.72 62.75 125.08 62.75 125.08 75.23 127.72 75.23 127.72 71.69 129.02 70.1 132.44 75.23 135.6 75.23 130.91 68.34 135.54 62.75"/>
      <path class="cls-1" d="M147.59,70.33h3.28c-.01.72-.16,1.36-.45,1.89-.31.56-.73,1-1.28,1.3-.55.31-1.18.46-1.89.46-.77,0-1.47-.19-2.08-.57-.62-.38-1.11-.94-1.47-1.69-.36-.74-.54-1.65-.54-2.74s.18-1.99.54-2.74c.36-.75.84-1.31,1.44-1.69.61-.38,1.28-.57,2.02-.57.45,0,.87.06,1.24.18.38.12.72.3,1.02.53.3.23.56.51.77.84.22.33.39.7.53,1.11h1.56c-.11-.61-.32-1.16-.62-1.66-.3-.5-.67-.93-1.12-1.28-.45-.36-.96-.64-1.53-.83-.57-.2-1.19-.3-1.84-.3-.8,0-1.53.15-2.2.45-.67.3-1.24.72-1.73,1.28-.49.56-.86,1.23-1.13,2.02-.27.79-.4,1.68-.4,2.67,0,1.32.23,2.45.7,3.41.47.96,1.12,1.7,1.95,2.22.84.52,1.81.78,2.91.78.99,0,1.87-.21,2.64-.62.77-.42,1.37-1.01,1.8-1.77.44-.76.66-1.65.66-2.68v-1.34h-4.75v1.34Z"/>
      <path class="cls-1" d="M161.55,69.87c.62-.32,1.08-.77,1.38-1.34.3-.57.45-1.22.45-1.96s-.15-1.39-.45-1.97c-.3-.58-.76-1.03-1.39-1.36-.63-.33-1.43-.5-2.4-.5h-4.22v12.48h1.51v-4.87h2.73c.11,0,.2-.02.31-.03l2.64,4.9h1.76l-2.84-5.18c.17-.06.37-.1.52-.18ZM159.12,68.99h-2.68v-4.9h2.66c.67,0,1.22.1,1.63.31.41.21.71.5.9.87.19.37.28.81.28,1.31s-.09.93-.28,1.29c-.19.36-.48.64-.89.83-.41.2-.95.29-1.61.29Z"/>
      <path class="cls-1" d="M173.76,63.36c-.83-.52-1.78-.78-2.84-.78s-2.01.26-2.84.78c-.83.52-1.48,1.26-1.96,2.22-.48.96-.71,2.1-.71,3.41s.24,2.45.71,3.41c.48.96,1.13,1.7,1.96,2.22.83.52,1.78.78,2.84.78s2.01-.26,2.84-.78c.83-.52,1.48-1.26,1.96-2.22.48-.96.71-2.1.71-3.41s-.24-2.45-.71-3.41c-.48-.96-1.13-1.7-1.96-2.22ZM174.43,71.73c-.36.75-.85,1.31-1.46,1.69-.61.38-1.29.57-2.05.57s-1.44-.19-2.05-.57c-.61-.38-1.1-.94-1.46-1.69-.36-.74-.54-1.65-.54-2.74s.18-1.99.54-2.74c.36-.75.84-1.31,1.46-1.69.61-.38,1.3-.57,2.05-.57s1.44.19,2.05.57c.61.38,1.1.94,1.46,1.69.36.74.54,1.66.54,2.74s-.18,1.99-.54,2.74Z"/>
      <path class="cls-1" d="M187.15,70.89c0,.61-.13,1.15-.4,1.62-.27.47-.65.85-1.15,1.12-.5.27-1.1.4-1.79.4s-1.29-.13-1.79-.4c-.5-.27-.88-.64-1.15-1.12-.27-.47-.4-1.02-.4-1.62v-8.14h-1.51v8.26c0,.85.2,1.61.6,2.28.4.67.96,1.2,1.69,1.58.73.38,1.58.58,2.56.58s1.83-.19,2.56-.58c.73-.38,1.29-.91,1.69-1.58.4-.67.6-1.43.6-2.28v-8.26h-1.51v8.14Z"/>
      <path class="cls-1" d="M198.31,63.28c-.62-.35-1.43-.53-2.41-.53h-4.22v12.48h1.51v-4.56h2.73c.97,0,1.77-.18,2.39-.53.62-.35,1.08-.83,1.38-1.44.3-.6.45-1.27.45-2.01s-.15-1.4-.45-2c-.3-.6-.76-1.07-1.39-1.42ZM198.38,68.04c-.19.4-.48.71-.89.94-.41.23-.94.35-1.61.35h-2.68v-5.24h2.66c.68,0,1.22.11,1.63.34.41.23.71.54.89.93.18.39.28.84.28,1.34s-.09.95-.28,1.34Z"/>
      <g>
        <path class="cls-2" d="M40.7,1c-1.18-.67-2.5-1-3.96-1s-2.8.34-3.98,1c-1.17.67-2.1,1.64-2.78,2.91-.68,1.27-1.02,2.81-1.02,4.62s.34,3.34,1.02,4.62c.68,1.27,1.61,2.24,2.78,2.91,1.17.67,2.5,1.01,3.98,1.01s2.79-.33,3.96-1,2.11-1.64,2.79-2.91c.68-1.27,1.03-2.81,1.03-4.62s-.34-3.35-1.03-4.62c-.68-1.27-1.61-2.24-2.79-2.91ZM40.43,11.5c-.35.81-.84,1.42-1.47,1.83-.63.42-1.37.63-2.22.63s-1.59-.21-2.22-.63c-.63-.42-1.12-1.02-1.47-1.83-.35-.8-.52-1.8-.52-2.97s.17-2.16.52-2.97c.35-.8.84-1.42,1.47-1.83.63-.42,1.37-.63,2.22-.63s1.59.21,2.22.63c.63.42,1.12,1.03,1.47,1.83.35.81.52,1.8.52,2.97s-.17,2.17-.52,2.97Z"/>
        <polygon class="cls-2" points="61.03 .23 56.82 .23 50.84 7.55 50.62 7.55 50.62 .23 47.11 .23 47.11 16.84 50.62 16.84 50.62 12.12 52.35 10.01 56.9 16.84 61.11 16.84 54.87 7.67 61.03 .23"/>
        <path class="cls-2" d="M73.85.23h-4.4l-6.94,10.93v2.77h7.97v2.92h3.36v-2.92h2.06v-2.82h-2.06V.23ZM70.55,11.11h-4.5v-.13l4.37-6.92h.13v7.05Z"/>
        <path class="cls-2" d="M88.61,10.72c0,.63-.14,1.2-.42,1.69-.28.49-.67.88-1.18,1.16-.51.28-1.1.42-1.78.42s-1.27-.14-1.78-.42c-.51-.28-.9-.67-1.18-1.16-.28-.49-.42-1.05-.42-1.69V.23h-3.51v10.79c0,1.21.29,2.27.86,3.18.57.91,1.38,1.62,2.41,2.12,1.03.51,2.24.76,3.62.76s2.58-.25,3.61-.76c1.03-.5,1.84-1.21,2.41-2.12.58-.91.86-1.97.86-3.18V.23h-3.51v10.49Z"/>
        <polygon class="cls-2" points="108.93 .23 104.72 .23 98.74 7.55 98.53 7.55 98.53 .23 95.01 .23 95.01 16.84 98.53 16.84 98.53 12.12 100.25 10.01 104.8 16.84 109.01 16.84 102.77 7.67 108.93 .23"/>
      </g>
    </g>
  </g>
</svg>