<?xml version="1.0" encoding="UTF-8"?>
<svg id="Layer_2" data-name="Layer 2" xmlns="http://www.w3.org/2000/svg" viewBox="0 0 198.79 61.11">
  <defs>
    <style>
      .cls-1, .cls-2, .cls-3, .cls-4 {
        stroke-width: 0px;
      }

      .cls-2 {
        fill: #fff;
      }

      .cls-3 {
        fill: #212129;
      }

      .cls-4 {
        fill: #ffaf33;
      }
    </style>
  </defs>
  <g id="Layer_1-2" data-name="Layer 1">
    <g>
      <g>
        <path class="cls-2" d="M25.89,40.62c-.79,0-1.5-.47-1.82-1.2l-2.13-4.95h-10.7l-2.08,4.94c-.32.74-1.03,1.21-1.82,1.21H2.24c-.66,0-1.3-.35-1.66-.91-.37-.56-.42-1.27-.14-1.88L12.41,11.28c.31-.7,1.02-1.16,1.8-1.16h4.85c.78,0,1.49.46,1.8,1.17l12,26.53c.28.62.23,1.33-.14,1.9-.35.55-.99.9-1.66.9h-5.16ZM18.6,26.65l-1.99-4.63-1.99,4.63h3.98Z"/>
        <path class="cls-3" d="M31.66,38.36l-12-26.54c-.11-.24-.34-.39-.6-.39h-4.85c-.26,0-.49.15-.6.39L1.63,38.37c-.09.2-.07.43.05.63.12.18.33.3.55.3h5.1c.26,0,.5-.16.61-.4l2.42-5.74h12.44l2.48,5.74c.11.24.34.4.61.4h5.16c.22,0,.43-.12.55-.3.13-.19.14-.43.05-.63ZM16.61,18.69l3.99,9.27h-7.98l3.99-9.27Z"/>
        <path class="cls-2" d="M43.07,40.89c-2.41,0-4.62-.52-6.58-1.56-1.99-1.06-3.57-2.56-4.68-4.44-1.11-1.88-1.68-4.03-1.68-6.38s.57-4.5,1.68-6.37c1.13-1.88,2.69-3.36,4.66-4.41,1.94-1.04,4.16-1.56,6.6-1.56,2.32,0,4.4.49,6.19,1.45,1.86,1.01,3.28,2.47,4.23,4.35.47.92.13,2.06-.77,2.59l-3.65,2.12c-.29.18-.64.27-1,.27-.68,0-1.33-.36-1.68-.94-.39-.63-.87-1.09-1.44-1.4-.58-.3-1.23-.46-1.92-.46-1.26,0-2.22.37-3.01,1.16-.79.78-1.16,1.8-1.16,3.21s.36,2.43,1.15,3.22c.79.78,1.75,1.15,3.02,1.15.7,0,1.35-.16,1.92-.47.56-.3,1.04-.77,1.44-1.41.38-.59,1-.93,1.68-.93.35,0,.69.09.99.27l3.64,2.12c.9.53,1.24,1.67.77,2.6-.98,1.89-2.41,3.35-4.26,4.35-1.78.98-3.85,1.48-6.16,1.48Z"/>
        <path class="cls-3" d="M32.95,34.22c-.99-1.68-1.5-3.6-1.5-5.7s.5-4.02,1.5-5.69c.99-1.66,2.38-2.98,4.14-3.92,1.75-.94,3.76-1.41,5.98-1.41,2.1,0,3.97.43,5.57,1.29,1.62.88,2.85,2.15,3.67,3.78.16.31.05.68-.26.86l-3.64,2.12c-.31.18-.7.09-.89-.22-.52-.84-1.17-1.46-1.94-1.88-.77-.41-1.63-.62-2.55-.62-1.61,0-2.89.5-3.94,1.53-1.04,1.03-1.55,2.38-1.55,4.14s.5,3.11,1.53,4.14c1.03,1.03,2.33,1.53,3.96,1.53.92,0,1.78-.21,2.55-.63.77-.41,1.42-1.04,1.94-1.88.19-.3.59-.4.89-.22l3.64,2.12c.3.18.41.56.26.88-.84,1.63-2.09,2.9-3.71,3.78-1.59.88-3.45,1.32-5.53,1.32-2.19,0-4.2-.47-5.96-1.4-1.77-.94-3.17-2.27-4.16-3.95Z"/>
        <path class="cls-2" d="M61.93,40.87c-1.81,0-3.42-.32-4.8-.96-1.55-.71-2.68-1.66-3.47-2.9-.82-1.18-1.27-2.64-1.27-4.18,0-2.4.96-4.45,2.78-5.92.4-.32.84-.6,1.31-.85-.62-.13-1.11-.5-1.38-1.02l-1.87-3.44c-.46-.88-.23-1.93.54-2.52,1.3-.98,2.81-1.72,4.49-2.2,1.75-.47,3.53-.71,5.31-.71,3.45,0,6.19.89,8.15,2.63.01.01.02.02.03.03,1.99,1.82,2.99,4.48,2.99,7.93v11.86c0,1.09-.89,1.98-1.98,1.98h-4.47c-.6,0-1.13-.27-1.5-.69-.07.03-.13.06-.2.09-1.31.57-2.89.85-4.68.85ZM63.14,31.93c-2.12,0-2.12.54-2.12.71,0,.25.06.33.21.44.37.28.92.41,1.68.41.81,0,1.54-.19,2.17-.56.45-.26.77-.58.99-1h-2.92ZM63,24.08c-.94,0-1.84.14-2.75.43-.64.21-1.19.47-1.65.78,1.21-.31,2.61-.46,4.2-.46h2.79c-.05-.06-.1-.11-.15-.16-.44-.38-1.27-.59-2.43-.59Z"/>
        <path class="cls-3" d="M70.86,19.8s0,0,0,0c-1.71-1.53-4.16-2.3-7.27-2.3-1.65,0-3.31.22-4.95.66-1.53.44-2.9,1.11-4.05,1.98-.26.2-.34.55-.18.84l1.88,3.46c.09.18.26.3.46.34.19.03.4-.02.55-.14.68-.57,1.52-1.03,2.57-1.38,1.04-.33,2.07-.49,3.15-.49,1.5,0,2.6.32,3.33.95.64.6.99,1.4,1.05,2.44h-4.58c-3.08,0-5.3.59-6.79,1.79-1.52,1.23-2.29,2.88-2.29,4.89,0,1.28.36,2.46,1.06,3.47.65,1.01,1.59,1.8,2.9,2.41,1.21.55,2.63.84,4.26.84s3.01-.25,4.16-.74c.58-.25,1.1-.57,1.56-.94v.76c0,.36.3.66.66.66h4.47c.36,0,.66-.3.66-.66v-11.86c0-3.07-.87-5.42-2.58-6.98ZM67.39,30.61v1.59c-.33.81-.88,1.43-1.64,1.86-.84.49-1.79.74-2.84.74s-1.88-.22-2.45-.66c-.51-.36-.76-.86-.76-1.51,0-.55,0-2.03,3.44-2.03h4.25Z"/>
        <path class="cls-2" d="M88.22,40.87c-2.3,0-4.39-.51-6.21-1.51-1.9-1.05-3.35-2.5-4.42-4.43-1.05-1.92-1.58-4.08-1.58-6.42s.53-4.5,1.57-6.38c1.09-1.9,2.58-3.37,4.43-4.4,1.84-1.03,3.93-1.55,6.21-1.55,1.6,0,3.05.27,4.44.83.04.02.09.04.13.06v-6.59c0-1.09.89-1.98,1.98-1.98h4.74c1.09,0,1.98.89,1.98,1.98v28.16c0,1.09-.89,1.98-1.98,1.98h-4.56c-.67,0-1.26-.33-1.62-.84-.17.08-.34.16-.52.23-1.36.58-2.87.87-4.59.87ZM88.8,24.14c-.79,0-1.49.17-2.07.51-.62.35-1.08.83-1.42,1.46-.39.69-.57,1.47-.57,2.4s.18,1.71.56,2.39c.35.64.82,1.13,1.41,1.45.61.36,1.3.53,2.09.53s1.47-.17,2.11-.53c.56-.32,1.04-.82,1.42-1.47.34-.65.52-1.44.52-2.37s-.17-1.71-.55-2.43c-.35-.6-.83-1.1-1.41-1.43-.6-.34-1.29-.51-2.09-.51Z"/>
        <path class="cls-3" d="M99.5,9.82h-4.74c-.36,0-.66.3-.66.66v8.89c-.58-.45-1.23-.82-1.94-1.13-1.22-.49-2.51-.74-3.95-.74-2.04,0-3.92.46-5.57,1.38-1.64.91-2.96,2.21-3.92,3.89-.94,1.69-1.41,3.62-1.41,5.74s.47,4.06,1.42,5.78c.96,1.71,2.24,2.99,3.91,3.92,1.62.9,3.49,1.35,5.57,1.35,1.53,0,2.87-.25,4.09-.77.72-.3,1.38-.69,1.98-1.17v1.03c0,.36.3.66.66.66h4.56c.36,0,.66-.3.66-.66V10.48c0-.36-.3-.66-.66-.66ZM91.56,33.5c-.83.47-1.73.7-2.76.7s-1.94-.23-2.73-.7c-.8-.45-1.45-1.11-1.92-1.96-.49-.88-.72-1.86-.72-3.03s.24-2.15.73-3.03c.46-.85,1.11-1.51,1.92-1.97.78-.45,1.71-.69,2.73-.69s1.93.22,2.75.69c.78.45,1.43,1.12,1.92,1.96.47.9.7,1.88.7,3.04s-.22,2.14-.7,3.03c-.49.86-1.14,1.52-1.91,1.96Z"/>
        <path class="cls-2" d="M114.64,40.87c-2.55,0-4.84-.52-6.8-1.55-1.99-1.01-3.58-2.51-4.71-4.45-1.1-1.88-1.65-4.02-1.65-6.36s.53-4.45,1.58-6.31c1.13-1.91,2.64-3.4,4.51-4.45,1.89-1.06,3.97-1.58,6.36-1.58s4.4.52,6.24,1.55c1.93,1.1,3.37,2.57,4.41,4.47,1.05,1.86,1.57,3.97,1.57,6.43,0,.38-.03.92-.1,1.6-.1,1.02-.95,1.79-1.96,1.79h-1.82l2.01,2.3c.63.73.65,1.8.04,2.55-1.09,1.34-2.52,2.36-4.24,3.04-1.54.64-3.38.98-5.43.98ZM111.57,32.01c.79.59,1.87.9,3.19.9s2.34-.29,3.23-.9h-6.42ZM116.61,24.92s-.08-.07-.11-.1c-.68-.6-1.49-.88-2.58-.88s-1.9.27-2.6.86c-.04.04-.09.08-.13.12h5.42Z"/>
        <path class="cls-3" d="M123.41,22.83c-.92-1.69-2.19-2.98-3.89-3.95-1.65-.92-3.54-1.38-5.6-1.38s-4.03.46-5.72,1.41c-1.66.94-3,2.26-4,3.95-.94,1.66-1.41,3.56-1.41,5.66s.49,4.02,1.48,5.7c.99,1.71,2.4,3.04,4.18,3.95,1.77.93,3.85,1.4,6.19,1.4,1.88,0,3.54-.3,4.95-.88,1.51-.6,2.75-1.49,3.7-2.65.2-.25.2-.61-.01-.85l-2.54-2.91c-.12-.14-.29-.22-.47-.23-.18,0-.36.07-.49.2-1.32,1.34-2.96,2-5.01,2-1.62,0-2.96-.39-3.99-1.17-.83-.63-1.4-1.4-1.73-2.36h15.04c.34,0,.62-.26.65-.59.06-.62.09-1.13.09-1.48,0-2.22-.46-4.12-1.41-5.8ZM110.48,23.79c.94-.79,2.07-1.17,3.45-1.17s2.53.39,3.44,1.2c.72.62,1.21,1.43,1.47,2.42h-9.87c.28-.99.79-1.82,1.52-2.44Z"/>
        <path class="cls-2" d="M157.84,40.62c-1.09,0-1.98-.89-1.98-1.98v-11.01c0-1.26-.24-2.19-.68-2.7-.27-.31-.74-.67-1.89-.67-1.03,0-1.79.3-2.38.94-.61.66-.92,1.72-.92,3.16v10.28c0,1.09-.89,1.98-1.98,1.98h-4.74c-1.09,0-1.98-.89-1.98-1.98v-11.01c0-1.25-.24-2.19-.69-2.7-.25-.28-.72-.67-1.89-.67-1.06,0-1.82.29-2.39.91-.6.66-.91,1.73-.91,3.18v10.28c0,1.09-.89,1.98-1.98,1.98h-4.74c-1.09,0-1.98-.89-1.98-1.98v-20.26c0-1.09.89-1.98,1.98-1.98h4.51c.67,0,1.27.34,1.62.85.15-.07.29-.14.44-.2,1.4-.58,2.93-.88,4.57-.88,1.82,0,3.47.36,4.9,1.06.76.37,1.45.83,2.06,1.39.68-.54,1.44-1,2.27-1.38,1.58-.71,3.32-1.07,5.18-1.07,3.08,0,5.59.94,7.46,2.79,1.87,1.86,2.82,4.57,2.82,8.06v11.61c0,1.09-.89,1.98-1.98,1.98h-4.74Z"/>
        <path class="cls-3" d="M135.81,18.27c1.21-.51,2.58-.77,4.05-.77,1.61,0,3.07.31,4.33.92,1.02.49,1.88,1.18,2.56,2.05.8-.84,1.77-1.52,2.89-2.02,1.4-.63,2.96-.95,4.64-.95,2.72,0,4.92.81,6.53,2.41s2.43,4,2.43,7.13v11.61c0,.36-.29.66-.66.66h-4.74c-.36,0-.66-.3-.66-.66v-11.01c0-1.6-.34-2.8-1.01-3.57-.67-.75-1.6-1.12-2.89-1.12-1.41,0-2.5.45-3.35,1.36-.84.92-1.26,2.28-1.26,4.05v10.28c0,.36-.3.66-.66.66h-4.74c-.37,0-.66-.3-.66-.66v-11.01c0-1.59-.34-2.8-1.01-3.57-.66-.75-1.61-1.12-2.89-1.12-1.44,0-2.54.44-3.36,1.34-.83.9-1.25,2.27-1.25,4.07v10.28c0,.36-.3.66-.66.66h-4.74c-.37,0-.66-.3-.66-.66v-20.26c0-.36.29-.66.66-.66h4.51c.36,0,.66.3.66.66v1.02c.58-.45,1.23-.84,1.93-1.14Z"/>
        <rect class="cls-2" y="40.35" width="164.57" height="7.9" rx="1.98" ry="1.98"/>
        <rect class="cls-3" x="1.32" y="41.67" width="161.94" height="5.27" rx=".66" ry=".66"/>
        <path class="cls-2" d="M166.06,48.26c-1.09,0-1.98-.89-1.98-1.98v-3.95c0-1.09.89-1.98,1.98-1.98h4.04c.24,0,.46-.08.62-.21.02-.02.04-.03.06-.05.21-.15.55-.59.88-1.37v-.02s-8.48-19.54-8.48-19.54c-.27-.6-.21-1.33.17-1.89.34-.53.97-.87,1.64-.87h4.93c.81,0,1.52.48,1.83,1.22l4.56,10.69,4.58-10.71c.32-.73,1.03-1.2,1.82-1.2h4.56c.67,0,1.29.34,1.66.9.36.52.43,1.23.17,1.85l-9.5,21.91c-1.04,2.56-2.33,4.36-3.91,5.47-.85.57-1.66.96-2.51,1.21-.42.14-.86.24-1.27.31-.36.08-.74.12-1.08.15-.15.03-.3.05-.46.05h-4.3Z"/>
        <path class="cls-3" d="M187.81,18.02c.13.18.14.42.06.63l-9.49,21.9c-.96,2.35-2.09,3.96-3.46,4.92-.72.48-1.41.81-2.13,1.02-.37.12-.76.22-1.15.28-.32.08-.69.11-1.05.14-.07.03-.15.04-.23.04h-4.29c-.37,0-.66-.29-.66-.66v-3.95c0-.36.29-.66.66-.66h4.04c.57-.02,1.07-.19,1.46-.51.47-.35.93-1.02,1.31-1.91l.24-.53-8.71-20.07c-.09-.2-.07-.44.05-.63.12-.18.33-.3.55-.3h4.93c.27,0,.51.16.61.4l5.78,13.55,5.8-13.55c.11-.24.34-.4.61-.4h4.56c.22,0,.43.11.55.3Z"/>
        <g>
          <path class="cls-2" d="M105.97,14.64c-.57,0-1.11-.23-1.51-.65-.38-.39-.6-.91-.6-1.5s.21-1.1.62-1.5c.37-.39.91-.62,1.49-.62s1.08.21,1.49.6c.43.43.64.95.64,1.52s-.22,1.11-.62,1.52c-.44.42-.95.63-1.51.63Z"/>
          <path class="cls-3" d="M106.78,12.5c0,.23-.08.43-.24.59-.16.16-.35.24-.57.24s-.41-.09-.56-.24c-.16-.16-.23-.36-.23-.59s.07-.41.23-.57c.15-.16.34-.23.56-.23s.41.07.57.23c.16.16.24.35.24.57Z"/>
          <path class="cls-2" d="M112.08,14.64c-1,0-1.92-.23-2.73-.68-.82-.44-1.48-1.09-1.95-1.93-.46-.81-.69-1.72-.69-2.73s.23-1.91.69-2.72c.47-.82,1.13-1.46,1.95-1.92.82-.45,1.73-.67,2.73-.67.88,0,1.69.18,2.4.53.77.39,1.38.95,1.81,1.67.36.6.19,1.38-.39,1.77l-.79.53c-.23.15-.48.23-.74.23-.42,0-.84-.2-1.09-.58-.14-.2-.29-.34-.49-.44-.21-.1-.45-.15-.71-.15-.35,0-.63.07-.89.21-.24.14-.42.32-.56.57-.15.27-.22.59-.22.97s.07.71.23.99c.13.23.31.41.54.54.27.15.55.22.9.22.28,0,.52-.05.74-.16.18-.08.33-.22.46-.42.2-.29.5-.49.84-.55.08-.02.16-.02.25-.02.26,0,.52.08.74.23l.79.54c.58.4.75,1.18.38,1.77-.44.73-1.05,1.28-1.82,1.66-.73.36-1.53.54-2.39.54Z"/>
          <path class="cls-3" d="M114.37,11.22l.79.54c-.31.51-.73.9-1.27,1.16-.54.26-1.15.4-1.81.4-.78,0-1.48-.17-2.09-.51-.62-.34-1.1-.82-1.45-1.43-.35-.61-.52-1.3-.52-2.07s.17-1.46.52-2.07c.35-.61.83-1.08,1.45-1.42.61-.34,1.31-.51,2.09-.51.68,0,1.28.13,1.82.4.53.27.96.65,1.26,1.17l-.79.53c-.26-.39-.59-.68-.99-.88-.4-.19-.84-.29-1.3-.29-.57,0-1.08.13-1.53.38-.45.26-.81.62-1.07,1.09-.25.47-.38,1-.38,1.6s.13,1.15.38,1.61c.26.46.61.82,1.07,1.07.45.26.96.38,1.53.38.47,0,.9-.09,1.3-.28.4-.19.72-.48.99-.87Z"/>
          <path class="cls-2" d="M120.33,14.65c-.99,0-1.89-.23-2.7-.69-.82-.47-1.47-1.12-1.93-1.93-.46-.82-.7-1.74-.7-2.74s.23-1.89.69-2.7c.47-.82,1.12-1.47,1.93-1.93.86-.45,1.75-.66,2.71-.66s1.85.21,2.66.64c.86.5,1.53,1.16,1.98,1.96.46.79.69,1.7.69,2.7s-.23,1.94-.7,2.74c-.45.79-1.11,1.46-1.93,1.93-.81.46-1.72.69-2.71.69ZM119.48,10.86c.26.13.56.2.85.2.3,0,.62-.08.89-.22.2-.11.36-.28.48-.52,0-.02.02-.04.03-.06.14-.25.21-.58.21-.97,0-.37-.07-.7-.21-.95-.14-.29-.31-.46-.53-.58-.24-.15-.52-.21-.86-.21s-.62.06-.82.18c-.24.15-.43.34-.54.56-.01.02-.02.04-.03.07-.15.26-.23.6-.23.93,0,.36.08.69.23.96.01.02.03.05.04.07.12.25.34.43.51.54Z"/>
          <path class="cls-3" d="M123.82,7.25c-.34-.61-.84-1.09-1.44-1.44-.61-.32-1.3-.49-2.05-.49s-1.44.17-2.05.49c-.61.35-1.09.84-1.44,1.44-.34.61-.52,1.3-.52,2.05s.18,1.48.52,2.08c.35.61.84,1.09,1.44,1.44.61.34,1.3.51,2.05.51s1.44-.17,2.05-.51c.61-.35,1.1-.84,1.44-1.44.35-.61.52-1.3.52-2.08s-.17-1.44-.52-2.05ZM122.87,10.91c-.23.47-.58.84-1.04,1.1-.43.23-.96.38-1.5.38s-1.07-.14-1.5-.38c-.43-.26-.8-.63-1.03-1.1-.26-.46-.41-1.01-.41-1.61,0-.57.14-1.13.41-1.59.23-.46.61-.84,1.03-1.09.43-.26.96-.38,1.5-.38s1.07.11,1.5.38c.46.26.81.63,1.04,1.09.26.46.38,1.01.38,1.59,0,.61-.12,1.15-.38,1.61Z"/>
          <path class="cls-2" d="M138.44,14.56c-.73,0-1.32-.59-1.32-1.32v-4.46c0-.33-.04-.76-.25-.99-.04-.05-.19-.21-.7-.21-.59,0-.83.19-.97.33-.23.25-.35.65-.35,1.2v4.13c0,.73-.59,1.32-1.32,1.32h-1.06c-.73,0-1.32-.59-1.32-1.32v-4.46c0-.33-.04-.76-.25-.99-.04-.05-.19-.21-.71-.21-.57,0-.82.18-.97.34-.23.25-.35.64-.35,1.19v4.13c0,.73-.59,1.32-1.32,1.32h-1.07c-.73,0-1.32-.59-1.32-1.32v-7.88c0-.73.59-1.32,1.32-1.32h1.02c.34,0,.64.13.87.33.62-.26,1.29-.39,2.02-.39.9,0,1.7.2,2.38.6.18.1.34.21.5.34.17-.12.35-.24.54-.34.74-.4,1.57-.6,2.49-.6,1.35,0,2.45.42,3.27,1.25.81.82,1.22,1.98,1.22,3.44v4.56c0,.73-.59,1.32-1.32,1.32h-1.06Z"/>
          <path class="cls-3" d="M139.5,8.68v4.56h-1.06v-4.46c0-.82-.2-1.44-.59-1.88-.4-.43-.96-.64-1.67-.64-.82,0-1.46.25-1.93.75-.47.51-.7,1.21-.7,2.09v4.13h-1.06v-4.46c0-.82-.2-1.44-.59-1.88-.4-.43-.96-.64-1.69-.64-.81,0-1.45.25-1.92.75-.47.51-.71,1.21-.71,2.09v4.13h-1.07v-7.88h1.02v1.44c.28-.47.67-.84,1.17-1.11.5-.26,1.07-.39,1.73-.39s1.23.14,1.71.42c.49.28.85.69,1.09,1.24.29-.51.7-.92,1.25-1.22.55-.3,1.17-.44,1.86-.44.99,0,1.77.28,2.33.86.56.57.84,1.4.84,2.52Z"/>
        </g>
        <path class="cls-2" d="M198.05,11.42c-.5-.88-1.16-1.54-2.03-2.03-.88-.5-1.84-.75-2.84-.75s-1.99.26-2.81.75c-.87.49-1.56,1.18-2.06,2.06-.5.88-.75,1.83-.75,2.81s.25,1.93.75,2.81c.48.86,1.16,1.55,2.03,2.06.87.49,1.83.74,2.84.74s1.95-.25,2.81-.74c.87-.49,1.57-1.19,2.06-2.06.49-.87.74-1.83.74-2.84s-.25-1.95-.74-2.81Z"/>
        <path class="cls-3" d="M196.9,12.07c-.38-.67-.87-1.16-1.53-1.53-.67-.38-1.39-.58-2.19-.58s-1.53.2-2.17.58c-.66.37-1.18.89-1.55,1.55-.38.67-.58,1.38-.58,2.17s.2,1.5.58,2.16c.38.67.9,1.19,1.53,1.56.67.38,1.38.57,2.19.57s1.5-.2,2.16-.57c.67-.38,1.19-.9,1.56-1.56s.57-1.38.57-2.19-.2-1.5-.57-2.16ZM196.17,16.02c-.29.52-.72.95-1.24,1.26-.55.32-1.13.47-1.76.47-.67,0-1.24-.14-1.76-.47-.52-.28-.96-.72-1.24-1.26-.29-.52-.46-1.13-.46-1.76,0-.67.17-1.24.46-1.79.29-.52.72-.96,1.24-1.24.51-.32,1.12-.46,1.76-.46s1.26.14,1.79.43c.52.32.92.72,1.24,1.27.28.52.43,1.09.43,1.76s-.14,1.24-.46,1.79Z"/>
        <path class="cls-3" d="M194.53,15.04c.28-.14.51-.35.66-.58.14-.26.23-.55.23-.9,0-.49-.17-.89-.55-1.21-.38-.28-.86-.46-1.5-.46h-2.05v4.74h1.24v-1.39h.84l.9,1.39h1.26l-1.03-1.59ZM193.95,14.12c-.17.11-.38.2-.67.2h-.72v-1.47h.72c.29,0,.49.06.67.17.14.14.23.32.23.55,0,.26-.09.43-.23.55Z"/>
      </g>
      <g>
        <path class="cls-2" d="M2.05,60.94c-.36,0-.66-.29-.66-.66v-9.97c0-.36.29-.66.66-.66h3.37c.89,0,1.65.17,2.24.51.61.34,1.07.82,1.37,1.41.29.57.43,1.2.43,1.89s-.14,1.33-.43,1.9c-.3.6-.76,1.08-1.37,1.43-.59.34-1.35.51-2.23.51h-1.52v2.98c0,.36-.29.66-.66.66h-1.21ZM5.4,54.91c.42,0,.74-.06.96-.19.2-.12.35-.27.44-.46.11-.23.16-.49.16-.79s-.05-.56-.16-.79c-.09-.19-.23-.33-.44-.45-.22-.12-.56-.19-.98-.19h-1.46v2.87h1.48Z"/>
        <path class="cls-3" d="M7.34,50.73c-.5-.28-1.14-.42-1.92-.42h-3.37v9.97h1.21v-3.64h2.18c.78,0,1.41-.14,1.91-.43.5-.28.86-.67,1.1-1.15.24-.48.36-1.01.36-1.6s-.12-1.12-.36-1.6-.61-.86-1.11-1.14ZM7.39,54.54c-.15.32-.38.57-.71.75-.32.18-.75.28-1.29.28h-2.14v-4.19h2.12c.54,0,.98.09,1.3.27.33.18.57.43.71.74.15.31.22.67.22,1.07s-.07.76-.22,1.07Z"/>
        <path class="cls-2" d="M16.18,60.94c-.28,0-.53-.18-.62-.44l-.85-2.39h-3.1l-.85,2.39c-.09.26-.34.44-.62.44h-1.27c-.22,0-.42-.1-.54-.28-.12-.18-.15-.4-.08-.6l3.66-9.97c.1-.26.34-.43.62-.43h1.25c.28,0,.52.17.62.43l3.66,9.97c.07.2.04.43-.08.6-.12.18-.32.28-.54.28h-1.27ZM13.87,55.73l-.7-1.98-.7,1.98h1.41Z"/>
        <path class="cls-3" d="M12.54,50.31l-3.66,9.97h1.27l1-2.82h4.03l1,2.82h1.27l-3.66-9.97h-1.25ZM11.53,56.38l1.6-4.5h.08l1.6,4.5h-3.27Z"/>
        <path class="cls-2" d="M24.75,60.94c-.24,0-.46-.13-.58-.35l-1.91-3.55h-1.39v3.23c0,.36-.29.66-.66.66h-1.21c-.36,0-.66-.29-.66-.66v-9.97c0-.36.29-.66.66-.66h3.37c.88,0,1.63.16,2.23.47.62.33,1.08.79,1.39,1.37.29.55.43,1.18.43,1.88s-.15,1.33-.44,1.87c-.27.5-.66.92-1.17,1.23l1.92,3.5c.11.2.11.45-.01.65s-.33.32-.57.32h-1.4ZM22.36,54.63c.43,0,.77-.06,1-.17.19-.09.33-.21.41-.37.1-.19.15-.44.15-.73s-.05-.55-.15-.75c-.08-.17-.22-.3-.42-.4-.23-.12-.57-.18-1-.18h-1.46v2.6h1.48Z"/>
        <path class="cls-3" d="M24.3,56c.5-.26.87-.61,1.11-1.07.24-.45.36-.97.36-1.56s-.12-1.11-.36-1.57-.61-.82-1.11-1.09c-.5-.26-1.14-.4-1.92-.4h-3.37v9.97h1.21v-3.89h2.18c.09,0,.16-.02.24-.02l2.11,3.92h1.4l-2.27-4.14c.14-.05.29-.08.41-.14ZM20.21,51.38h2.12c.54,0,.97.08,1.3.25.33.16.57.4.72.69s.22.65.22,1.05-.07.74-.22,1.03c-.15.29-.38.51-.71.66s-.76.23-1.29.23h-2.14v-3.91Z"/>
        <path class="cls-2" d="M30.36,60.94c-.36,0-.66-.29-.66-.66v-8.24h-2.48c-.36,0-.66-.29-.66-.66v-1.07c0-.36.29-.66.66-.66h7.48c.36,0,.66.29.66.66v1.07c0,.36-.29.66-.66.66h-2.48v8.24c0,.36-.29.66-.66.66h-1.21Z"/>
        <polygon class="cls-3" points="27.22 51.38 30.36 51.38 30.36 60.28 31.56 60.28 31.56 51.38 34.7 51.38 34.7 50.31 27.22 50.31 27.22 51.38"/>
        <path class="cls-2" d="M44.43,61.07c-.97,0-1.85-.24-2.62-.72-.76-.48-1.37-1.16-1.8-2.04-.42-.86-.64-1.87-.64-3.02s.21-2.16.64-3.02c.43-.87,1.04-1.56,1.8-2.04.77-.48,1.65-.72,2.62-.72s1.85.24,2.62.72c.76.48,1.37,1.16,1.8,2.04.42.86.64,1.87.64,3.02s-.21,2.16-.64,3.02c-.43.87-1.04,1.56-1.8,2.04-.77.48-1.65.72-2.62.72ZM44.43,51.96c-.48,0-.9.12-1.29.36-.38.24-.68.59-.92,1.08-.24.5-.37,1.14-.37,1.9s.12,1.4.37,1.9c.23.49.53.84.92,1.08.38.24.81.36,1.29.36s.9-.12,1.29-.36c.39-.24.69-.59.92-1.08.24-.5.36-1.14.36-1.9s-.12-1.4-.36-1.9c-.23-.49-.53-.84-.92-1.08-.39-.24-.81-.36-1.29-.36Z"/>
        <path class="cls-3" d="M46.7,50.8c-.66-.42-1.42-.62-2.27-.62s-1.61.21-2.27.62c-.66.42-1.18,1.01-1.56,1.77-.38.77-.57,1.67-.57,2.73s.19,1.96.57,2.73c.38.77.9,1.36,1.56,1.77.66.42,1.42.62,2.27.62s1.61-.21,2.27-.62c.66-.42,1.18-1.01,1.56-1.77.38-.77.57-1.67.57-2.73s-.19-1.96-.57-2.73c-.38-.77-.9-1.36-1.56-1.77ZM47.24,57.48c-.29.6-.68,1.04-1.16,1.35-.49.31-1.03.46-1.64.46s-1.15-.15-1.64-.46c-.49-.3-.88-.75-1.16-1.35-.29-.59-.43-1.32-.43-2.18s.14-1.59.43-2.18c.29-.6.67-1.04,1.16-1.35s1.04-.46,1.64-.46,1.15.15,1.64.46.88.75,1.16,1.35c.29.59.43,1.32.43,2.18s-.14,1.59-.43,2.18Z"/>
        <path class="cls-2" d="M50.86,60.94c-.36,0-.66-.29-.66-.66v-9.97c0-.36.29-.66.66-.66h5.98c.36,0,.66.29.66.66v1.07c0,.36-.29.66-.66.66h-4.11v2.05h3.66c.36,0,.66.29.66.66v1.07c0,.36-.29.66-.66.66h-3.66v3.8c0,.36-.29.66-.66.66h-1.21Z"/>
        <polygon class="cls-3" points="50.86 60.28 52.07 60.28 52.07 55.82 56.39 55.82 56.39 54.75 52.07 54.75 52.07 51.38 56.84 51.38 56.84 50.31 50.86 50.31 50.86 60.28"/>
        <g>
          <path class="cls-4" d="M69.29,50.77c-.71-.4-1.5-.6-2.38-.6s-1.68.2-2.39.6c-.7.4-1.26.98-1.67,1.75-.41.76-.61,1.69-.61,2.77s.2,2.01.61,2.77c.41.76.96,1.34,1.67,1.75.7.4,1.5.6,2.39.6s1.67-.2,2.38-.6,1.26-.98,1.67-1.75c.41-.76.62-1.69.62-2.77s-.21-2.01-.62-2.77-.97-1.34-1.67-1.75ZM69.13,57.07c-.21.48-.5.85-.88,1.1-.38.25-.82.38-1.33.38s-.95-.12-1.33-.38c-.38-.25-.67-.61-.88-1.1-.21-.48-.31-1.08-.31-1.78s.1-1.3.31-1.78c.21-.48.5-.85.88-1.1.38-.25.82-.38,1.33-.38s.95.12,1.33.38c.38.25.67.62.88,1.1.21.48.31,1.08.31,1.78s-.1,1.3-.31,1.78Z"/>
          <path class="cls-1" d="M66.91,60.56c-.9,0-1.73-.21-2.46-.62-.73-.42-1.31-1.02-1.72-1.8-.42-.78-.63-1.74-.63-2.84s.21-2.06.63-2.84c.42-.78,1-1.39,1.72-1.8.73-.41,1.55-.62,2.46-.62s1.72.21,2.45.62h0c.73.41,1.31,1.02,1.73,1.8.42.78.63,1.74.63,2.84s-.21,2.06-.63,2.84c-.42.78-1,1.39-1.73,1.8-.72.41-1.55.62-2.45.62ZM66.91,50.32c-.85,0-1.63.2-2.32.58-.68.39-1.22.95-1.61,1.69-.4.74-.6,1.65-.6,2.71s.2,1.96.6,2.7c.39.73.94,1.3,1.61,1.69.68.39,1.46.58,2.31.58s1.63-.2,2.31-.58c.68-.39,1.22-.96,1.62-1.69.4-.74.6-1.65.6-2.71s-.2-1.97-.6-2.71c-.39-.73-.94-1.3-1.62-1.69h0c-.68-.39-1.46-.58-2.31-.58ZM66.91,58.69c-.54,0-1.01-.13-1.41-.4-.4-.26-.72-.65-.94-1.16-.22-.5-.33-1.11-.33-1.84s.11-1.34.33-1.84c.22-.51.54-.9.94-1.16.4-.26.88-.4,1.41-.4s1.01.13,1.41.4c.4.26.72.65.94,1.16.22.5.33,1.12.33,1.84s-.11,1.34-.33,1.84h0c-.22.51-.53.9-.94,1.16-.4.26-.88.4-1.41.4ZM66.91,52.18c-.48,0-.9.12-1.25.35-.35.23-.63.58-.83,1.04-.2.46-.3,1.04-.3,1.72s.1,1.26.3,1.72c.2.46.48.8.83,1.04.35.23.78.35,1.26.35s.9-.12,1.25-.35c.36-.23.63-.58.83-1.04h0c.2-.46.3-1.04.3-1.72s-.1-1.26-.3-1.72c-.2-.46-.48-.8-.83-1.04-.35-.23-.78-.35-1.26-.35Z"/>
        </g>
        <g>
          <polygon class="cls-4" points="81.49 50.31 78.96 50.31 75.37 54.7 75.24 54.7 75.24 50.31 73.13 50.31 73.13 60.28 75.24 60.28 75.24 57.44 76.28 56.18 79.01 60.28 81.53 60.28 77.79 54.77 81.49 50.31"/>
          <path class="cls-1" d="M81.8,60.42h-2.87l-2.67-4-.88,1.08v2.93h-2.39v-10.26h2.39v4.3l3.51-4.3h2.9l-3.82,4.62,3.84,5.64ZM79.09,60.14h2.18l-3.65-5.37,3.57-4.31h-2.15l-3.59,4.4h-.34v-4.4h-1.82v9.68h1.82v-2.74l1.19-1.45,2.8,4.2Z"/>
        </g>
        <g>
          <path class="cls-4" d="M89.18,50.31h-2.64l-4.16,6.56v1.66h4.79v1.75h2.01v-1.75h1.24v-1.69h-1.24v-6.53ZM84.5,56.76l2.62-4.15h.08v4.23h-2.7v-.08Z"/>
          <path class="cls-1" d="M89.32,60.42h-2.3v-1.75h-4.78v-1.85l.02-.03,4.2-6.62h2.86v6.53h1.24v1.98h-1.24v1.75ZM87.31,60.14h1.73v-1.75h1.24v-1.41h-1.24v-6.53h-2.42l-4.1,6.46v1.48h4.78v1.75ZM87.34,56.98h-2.99v-.26l2.69-4.25h.3v4.52ZM84.71,56.69h2.35v-3.72l-2.35,3.72Z"/>
        </g>
        <g>
          <path class="cls-4" d="M98.04,56.6c0,.38-.08.72-.25,1.01-.17.3-.4.53-.71.7-.3.17-.66.25-1.07.25s-.76-.08-1.07-.25c-.3-.17-.54-.4-.71-.7-.17-.29-.25-.63-.25-1.01v-6.29h-2.11v6.47c0,.73.17,1.36.52,1.91.34.55.83.97,1.45,1.27.62.3,1.34.45,2.17.45s1.55-.15,2.17-.45c.62-.3,1.1-.73,1.45-1.27.35-.54.52-1.18.52-1.91v-6.47h-2.11v6.29Z"/>
          <path class="cls-1" d="M96.01,60.56c-.85,0-1.6-.16-2.23-.47-.64-.31-1.15-.76-1.5-1.33-.36-.56-.54-1.23-.54-1.98v-6.62h2.39v6.44c0,.35.08.67.23.94.15.27.37.49.65.64.29.16.61.24,1,.24s.72-.08,1-.24c.28-.16.5-.37.65-.64.15-.27.23-.59.23-.94v-6.44h2.39v6.62c0,.75-.18,1.42-.54,1.98-.36.57-.86,1.01-1.51,1.33-.63.31-1.38.47-2.23.47ZM92.02,50.45v6.33c0,.7.17,1.31.49,1.83.33.52.8.93,1.39,1.22.6.29,1.3.44,2.11.44s1.51-.15,2.1-.44c.59-.29,1.06-.7,1.39-1.22.33-.52.5-1.13.5-1.83v-6.33h-1.82v6.15c0,.4-.09.77-.27,1.08-.18.32-.43.57-.76.75-.32.18-.7.27-1.14.27s-.81-.09-1.14-.27c-.33-.18-.58-.43-.76-.75-.18-.32-.27-.68-.27-1.08v-6.15h-1.82Z"/>
        </g>
        <g>
          <polygon class="cls-4" points="110.23 50.31 107.7 50.31 104.12 54.7 103.98 54.7 103.98 50.31 101.88 50.31 101.88 60.28 103.98 60.28 103.98 57.44 105.02 56.18 107.75 60.28 110.27 60.28 106.53 54.77 110.23 50.31"/>
          <path class="cls-1" d="M110.54,60.42h-2.87l-2.67-4-.88,1.08v2.93h-2.39v-10.26h2.39v4.3l3.51-4.3h2.9l-3.82,4.62,3.84,5.64ZM107.83,60.14h2.18l-3.65-5.37,3.57-4.31h-2.15l-3.59,4.4h-.34v-4.4h-1.82v9.68h1.82v-2.74l1.19-1.45,2.8,4.2Z"/>
        </g>
        <path class="cls-2" d="M119.58,61.07c-1,0-1.9-.24-2.67-.72-.77-.48-1.38-1.17-1.8-2.04-.41-.85-.62-1.87-.62-3.01,0-.86.12-1.64.35-2.34.24-.71.59-1.33,1.03-1.84.45-.51.99-.91,1.61-1.19.62-.27,1.3-.41,2.03-.41.6,0,1.16.09,1.69.27.52.18,1,.44,1.42.77.42.33.77.74,1.05,1.2.28.46.48.98.58,1.54.04.19-.01.39-.14.54-.12.15-.31.24-.51.24h-1.25c-.28,0-.54-.18-.63-.45-.09-.27-.2-.51-.34-.72-.13-.2-.29-.37-.47-.52-.17-.13-.38-.24-.61-.32-.23-.08-.5-.11-.79-.11-.47,0-.88.12-1.26.36-.38.24-.68.59-.91,1.08-.24.5-.36,1.14-.36,1.9s.12,1.4.37,1.9c.23.48.54.84.93,1.08.39.24.82.36,1.32.36.45,0,.85-.1,1.19-.28.33-.18.58-.44.77-.78.09-.16.15-.34.2-.54h-1.88c-.36,0-.66-.29-.66-.66v-1.07c0-.36.29-.66.66-.66h3.8c.36,0,.66.29.66.66v1.07c0,.93-.21,1.76-.61,2.47-.41.71-.98,1.27-1.7,1.66-.71.38-1.52.58-2.42.58Z"/>
        <path class="cls-3" d="M119.85,56.37h2.62c-.01.58-.13,1.08-.36,1.51-.25.45-.59.8-1.02,1.04-.44.25-.94.37-1.51.37-.62,0-1.17-.15-1.66-.46-.49-.3-.88-.75-1.17-1.35-.29-.59-.43-1.32-.43-2.18s.14-1.59.43-2.18c.29-.6.67-1.04,1.15-1.35s1.02-.46,1.61-.46c.36,0,.69.05.99.15.3.1.57.24.81.42.24.19.44.41.62.67.17.26.31.56.42.88h1.25c-.09-.48-.26-.93-.5-1.32s-.54-.74-.9-1.03c-.36-.29-.77-.51-1.22-.67-.46-.16-.95-.24-1.47-.24-.64,0-1.22.12-1.76.36-.53.24-.99.58-1.38,1.02s-.69.98-.9,1.61-.32,1.34-.32,2.13c0,1.05.19,1.96.56,2.73.37.77.89,1.36,1.56,1.77.67.42,1.44.62,2.33.62.79,0,1.49-.17,2.1-.5.61-.33,1.09-.8,1.44-1.41s.52-1.32.52-2.14v-1.07h-3.8v1.07Z"/>
        <path class="cls-2" d="M131.45,60.94c-.24,0-.47-.13-.58-.35l-1.91-3.55h-1.39v3.23c0,.36-.29.66-.66.66h-1.21c-.36,0-.66-.29-.66-.66v-9.97c0-.36.29-.66.66-.66h3.37c.89,0,1.63.16,2.23.47.62.33,1.08.79,1.39,1.36.29.55.43,1.18.43,1.88s-.15,1.32-.44,1.87c-.27.5-.66.92-1.17,1.23l1.92,3.5c.11.2.11.45-.01.65s-.33.32-.57.32h-1.4ZM129.06,54.63c.43,0,.77-.06,1-.17.2-.09.33-.21.41-.37.1-.19.15-.43.15-.73s-.05-.55-.16-.75c-.09-.17-.22-.3-.42-.4-.23-.12-.57-.18-1-.18h-1.46v2.6h1.48Z"/>
        <path class="cls-3" d="M131,56c.5-.26.87-.61,1.11-1.07.24-.45.36-.97.36-1.56s-.12-1.11-.36-1.57-.61-.82-1.11-1.09c-.5-.26-1.14-.4-1.92-.4h-3.37v9.97h1.21v-3.89h2.18c.09,0,.16-.02.24-.02l2.11,3.92h1.4l-2.27-4.14c.14-.05.29-.08.41-.14ZM126.92,51.38h2.12c.54,0,.97.08,1.3.25.33.16.57.4.72.69s.22.65.22,1.05-.07.74-.22,1.03c-.15.29-.38.51-.71.66s-.76.23-1.29.23h-2.14v-3.91Z"/>
        <path class="cls-2" d="M138.48,61.07c-.97,0-1.85-.24-2.62-.72-.76-.48-1.37-1.16-1.8-2.04-.42-.86-.64-1.87-.64-3.02s.21-2.16.64-3.02c.43-.87,1.04-1.56,1.8-2.04.76-.48,1.65-.72,2.62-.72s1.85.24,2.62.72c.76.48,1.37,1.16,1.8,2.04.42.86.64,1.87.64,3.02s-.21,2.16-.64,3.02c-.43.87-1.04,1.56-1.8,2.04-.77.48-1.65.72-2.62.72ZM138.48,51.96c-.48,0-.9.12-1.29.36-.39.24-.69.59-.92,1.08-.24.5-.37,1.14-.37,1.9s.12,1.4.36,1.9c.23.49.53.84.92,1.08.38.24.81.36,1.29.36s.9-.12,1.29-.36c.39-.24.69-.59.92-1.08.24-.5.36-1.14.36-1.9s-.12-1.4-.36-1.9c-.23-.48-.54-.84-.92-1.08-.39-.24-.81-.36-1.29-.36Z"/>
        <path class="cls-3" d="M140.75,50.8c-.66-.42-1.42-.62-2.27-.62s-1.61.21-2.27.62c-.66.42-1.18,1.01-1.56,1.77-.38.77-.57,1.67-.57,2.73s.19,1.96.57,2.73c.38.77.9,1.36,1.56,1.77.66.42,1.42.62,2.27.62s1.61-.21,2.27-.62c.66-.42,1.18-1.01,1.56-1.77.38-.77.57-1.67.57-2.73s-.19-1.96-.57-2.73c-.38-.77-.9-1.36-1.56-1.77ZM141.28,57.48c-.29.6-.68,1.04-1.16,1.35-.49.31-1.03.46-1.64.46s-1.15-.15-1.64-.46c-.49-.3-.88-.75-1.16-1.35-.29-.59-.43-1.32-.43-2.18s.14-1.59.43-2.18c.29-.6.67-1.04,1.16-1.35s1.04-.46,1.64-.46,1.15.15,1.64.46.88.75,1.16,1.35c.29.59.43,1.32.43,2.18s-.14,1.59-.43,2.18Z"/>
        <path class="cls-2" d="M148.78,61.11c-.88,0-1.68-.18-2.35-.54-.69-.36-1.23-.87-1.61-1.51-.38-.63-.57-1.36-.57-2.16v-6.6c0-.36.29-.66.66-.66h1.21c.36,0,.66.29.66.66v6.5c0,.38.08.69.24.97.16.27.37.48.66.64.3.16.67.24,1.11.24s.82-.08,1.12-.24c.29-.16.5-.36.66-.63.16-.28.23-.6.23-.97v-6.5c0-.36.29-.66.66-.66h1.21c.36,0,.66.29.66.66v6.6c0,.8-.19,1.53-.57,2.16-.38.64-.92,1.14-1.61,1.51-.67.36-1.47.54-2.35.54Z"/>
        <path class="cls-3" d="M151.45,56.81c0,.49-.11.92-.32,1.3s-.52.68-.92.89-.88.32-1.43.32-1.03-.11-1.43-.32-.7-.51-.92-.89-.32-.81-.32-1.3v-6.5h-1.21v6.6c0,.68.16,1.29.48,1.82s.77.96,1.35,1.26c.58.31,1.26.46,2.04.46s1.46-.15,2.04-.46c.58-.31,1.03-.73,1.35-1.26.32-.53.48-1.14.48-1.82v-6.6h-1.21v6.5Z"/>
        <path class="cls-2" d="M155.07,60.94c-.36,0-.66-.29-.66-.66v-9.97c0-.36.29-.66.66-.66h3.37c.89,0,1.65.17,2.24.51.61.34,1.07.82,1.37,1.41.29.57.43,1.2.43,1.89s-.14,1.33-.43,1.9c-.3.6-.76,1.08-1.37,1.43-.59.34-1.35.51-2.23.51h-1.52v2.98c0,.36-.29.66-.66.66h-1.21ZM158.42,54.91c.42,0,.74-.06.96-.19.2-.12.35-.27.44-.46.11-.23.16-.49.16-.79s-.05-.56-.16-.79c-.09-.19-.23-.33-.44-.45-.22-.12-.56-.19-.98-.19h-1.46v2.87h1.48Z"/>
        <path class="cls-3" d="M161.47,51.87c-.24-.48-.61-.86-1.11-1.14-.5-.28-1.14-.42-1.92-.42h-3.37v9.97h1.21v-3.64h2.18c.78,0,1.41-.14,1.91-.43.5-.28.86-.67,1.1-1.15.24-.48.36-1.01.36-1.6s-.12-1.12-.36-1.6ZM160.42,54.54c-.15.32-.38.57-.71.75-.32.18-.75.28-1.29.28h-2.14v-4.19h2.12c.54,0,.98.09,1.3.27.33.18.57.43.71.74.15.31.22.67.22,1.07s-.07.76-.22,1.07Z"/>
      </g>
      <g>
        <path class="cls-4" d="M34.33,1c-.95-.54-2.02-.81-3.21-.81s-2.27.27-3.22.81c-.95.54-1.7,1.33-2.25,2.36-.55,1.03-.83,2.28-.83,3.75s.28,2.71.83,3.74c.55,1.03,1.3,1.82,2.25,2.36.95.54,2.03.81,3.22.81s2.26-.27,3.21-.81c.95-.54,1.71-1.33,2.26-2.36.55-1.03.83-2.28.83-3.75s-.28-2.72-.83-3.75-1.31-1.82-2.26-2.36ZM34.12,9.51c-.28.65-.68,1.15-1.19,1.48-.51.34-1.11.51-1.8.51s-1.29-.17-1.8-.51c-.51-.34-.91-.83-1.19-1.48-.28-.65-.42-1.46-.42-2.41s.14-1.75.42-2.41c.28-.65.68-1.15,1.19-1.48.51-.34,1.11-.51,1.8-.51s1.29.17,1.8.51c.51.34.91.83,1.19,1.48.28.65.42,1.46.42,2.41s-.14,1.75-.42,2.41Z"/>
        <path class="cls-1" d="M31.12,14.21c-1.22,0-2.34-.28-3.32-.84-.98-.56-1.76-1.38-2.33-2.44-.56-1.05-.85-2.34-.85-3.83s.29-2.78.85-3.84c.57-1.06,1.35-1.88,2.33-2.43.98-.56,2.09-.84,3.32-.84s2.32.28,3.3.84c0,0,0,0,0,0,.98.56,1.77,1.38,2.34,2.43.57,1.05.85,2.35.85,3.84s-.29,2.78-.85,3.84c-.57,1.06-1.35,1.87-2.33,2.43-.98.55-2.09.84-3.3.84ZM31.12.38c-1.15,0-2.21.26-3.13.79-.92.52-1.65,1.29-2.18,2.28-.54,1-.81,2.23-.81,3.66s.27,2.65.81,3.65c.53.99,1.26,1.76,2.18,2.29.92.52,1.97.79,3.13.79s2.2-.26,3.12-.79c.92-.52,1.65-1.29,2.19-2.28.54-1,.81-2.23.81-3.66s-.27-2.66-.81-3.66c-.53-.99-1.27-1.76-2.19-2.28-.92-.52-1.97-.79-3.12-.79ZM31.12,11.69c-.72,0-1.37-.18-1.91-.54-.54-.36-.97-.88-1.26-1.57-.29-.67-.44-1.51-.44-2.48s.15-1.81.44-2.48c.3-.69.72-1.21,1.26-1.57.54-.36,1.18-.54,1.91-.54s1.37.18,1.91.54c.54.35.97.88,1.26,1.57.29.68.44,1.51.44,2.48s-.15,1.81-.44,2.48h0c-.3.68-.72,1.21-1.26,1.57-.54.36-1.18.54-1.91.54ZM31.12,2.9c-.65,0-1.22.16-1.7.48-.48.31-.86.79-1.12,1.4-.27.62-.41,1.41-.41,2.33s.14,1.71.41,2.33c.27.62.64,1.09,1.12,1.4.48.32,1.05.48,1.7.48s1.22-.16,1.7-.48c.48-.31.86-.79,1.12-1.4h0c.27-.63.41-1.41.41-2.33s-.14-1.7-.41-2.33c-.27-.62-.65-1.09-1.12-1.4-.48-.32-1.05-.48-1.7-.48ZM34.12,9.51h0,0Z"/>
      </g>
      <g>
        <polygon class="cls-4" points="50.81 .37 47.4 .37 42.55 6.31 42.37 6.31 42.37 .37 39.53 .37 39.53 13.84 42.37 13.84 42.37 10.01 43.77 8.3 47.46 13.84 50.87 13.84 45.81 6.4 50.81 .37"/>
        <path class="cls-1" d="M50.87,14.03h-3.41c-.06,0-.12-.03-.16-.08l-3.54-5.32-1.19,1.46v3.76c0,.11-.09.19-.19.19h-2.85c-.11,0-.19-.09-.19-.19V.37c0-.11.09-.19.19-.19h2.85c.11,0,.19.09.19.19v5.62L47.25.25s.09-.07.15-.07h3.41c.07,0,.14.04.17.11.03.07.02.15-.03.2l-4.9,5.92,4.98,7.31c.04.06.04.13.01.2-.03.06-.1.1-.17.1ZM47.56,13.65h2.94l-4.85-7.14c-.05-.07-.04-.16.01-.23l4.74-5.72h-2.92l-4.79,5.87s-.09.07-.15.07h-.18c-.11,0-.19-.09-.19-.19V.57h-2.47v13.08h2.47v-3.64s.02-.09.04-.12l1.4-1.71s.1-.08.16-.07c.06,0,.12.03.15.08l3.63,5.45Z"/>
      </g>
      <g>
        <path class="cls-4" d="M61.19.37h-3.56l-5.62,8.85v2.24h6.46v2.37h2.72v-2.37h1.67v-2.28h-1.67V.37ZM54.88,9.08l3.54-5.61h.11v5.71h-3.65v-.1Z"/>
        <path class="cls-1" d="M61.19,14.03h-2.72c-.11,0-.19-.09-.19-.19v-2.18h-6.27c-.11,0-.19-.09-.19-.19v-2.24s.01-.07.03-.1L57.47.27c.03-.06.1-.09.16-.09h3.56c.11,0,.19.09.19.19v8.62h1.48c.11,0,.19.09.19.19v2.28c0,.11-.09.19-.19.19h-1.48v2.18c0,.11-.09.19-.19.19ZM58.66,13.65h2.34v-2.18c0-.11.09-.19.19-.19h1.48v-1.9h-1.48c-.11,0-.19-.09-.19-.19V.57h-3.27l-5.53,8.72v2h6.27c.11,0,.19.09.19.19v2.18ZM58.52,9.38h-3.65c-.11,0-.19-.09-.19-.19v-.1s.01-.07.03-.1l3.54-5.61c.03-.06.1-.09.16-.09h.11c.11,0,.19.09.19.19v5.71c0,.11-.09.19-.19.19ZM55.16,9h3.18V3.97l-3.18,5.03Z"/>
      </g>
      <g>
        <path class="cls-4" d="M73.16,8.87c0,.51-.11.97-.34,1.37-.23.4-.54.71-.95.94-.41.23-.89.34-1.44.34s-1.03-.11-1.44-.34c-.41-.23-.73-.54-.96-.94-.23-.4-.34-.85-.34-1.37V.37h-2.85v8.74c0,.98.23,1.84.7,2.58.46.74,1.12,1.31,1.95,1.72.84.41,1.81.61,2.93.61s2.09-.2,2.92-.61c.84-.41,1.49-.98,1.95-1.72.47-.73.7-1.59.7-2.58V.37h-2.85v8.5Z"/>
        <path class="cls-1" d="M70.42,14.22c-1.14,0-2.16-.21-3.02-.63-.86-.42-1.55-1.02-2.03-1.79-.48-.76-.73-1.66-.73-2.68V.37c0-.11.09-.19.19-.19h2.85c.11,0,.19.09.19.19v8.5c0,.48.11.91.31,1.27.21.37.5.66.88.87.38.21.83.32,1.35.32s.97-.11,1.35-.32c.38-.21.67-.5.88-.87.21-.37.31-.8.31-1.27V.37c0-.11.09-.19.19-.19h2.85c.11,0,.19.09.19.19v8.74c0,1.02-.25,1.92-.73,2.68-.48.76-1.17,1.37-2.03,1.79-.86.42-1.87.63-3.01.63ZM65.03.57v8.55c0,.94.22,1.78.67,2.47.44.7,1.07,1.26,1.88,1.65.8.39,1.76.6,2.85.6s2.04-.2,2.84-.6c.8-.39,1.43-.95,1.88-1.65.45-.7.67-1.53.67-2.47V.57h-2.47v8.31c0,.54-.12,1.04-.36,1.46-.24.43-.59.77-1.03,1.01-.43.24-.95.37-1.53.37s-1.1-.12-1.53-.37c-.44-.24-.79-.58-1.03-1.01-.24-.43-.36-.92-.36-1.46V.57h-2.47Z"/>
      </g>
      <g>
        <polygon class="cls-4" points="89.62 .37 86.21 .37 81.36 6.31 81.19 6.31 81.19 .37 78.34 .37 78.34 13.84 81.19 13.84 81.19 10.01 82.59 8.3 86.27 13.84 89.68 13.84 84.62 6.4 89.62 .37"/>
        <path class="cls-1" d="M89.68,14.03h-3.41c-.06,0-.12-.03-.16-.08l-3.54-5.32-1.19,1.46v3.76c0,.11-.09.19-.19.19h-2.85c-.11,0-.19-.09-.19-.19V.37c0-.11.09-.19.19-.19h2.85c.11,0,.19.09.19.19v5.62l4.68-5.74s.09-.07.15-.07h3.41c.07,0,.14.04.17.11.03.07.02.15-.03.2l-4.9,5.92,4.98,7.31c.04.06.04.13.01.2-.03.06-.1.1-.17.1ZM86.38,13.65h2.94l-4.85-7.14c-.05-.07-.04-.16.01-.23l4.74-5.72h-2.92l-4.79,5.87s-.09.07-.15.07h-.18c-.11,0-.19-.09-.19-.19V.57h-2.47v13.08h2.47v-3.64s.02-.09.04-.12l1.4-1.71s.1-.08.16-.07c.06,0,.12.03.15.08l3.63,5.45Z"/>
      </g>
    </g>
  </g>
</svg>